<?xml version="1.0" standalone="no"?>
<!DOCTYPE svg PUBLIC "-//W3C//DTD SVG 1.1//EN" "http://www.w3.org/Graphics/SVG/1.1/DTD/svg11.dtd" >
<!--
2013-9-30: Created.
-->
<svg>
<metadata>
Created by iconfont
</metadata>
<defs>

<font id="iconfont" horiz-adv-x="1024" >
  <font-face
    font-family="iconfont"
    font-weight="500"
    font-stretch="normal"
    units-per-em="1024"
    ascent="896"
    descent="-128"
  />
    <missing-glyph />
    
    <glyph glyph-name="yuedu" unicode="&#58961;" d="M816.864 704l-304.96-46.72L206.912 704 160 704l0-578.128 20.176 0L488.432 32 496 32l32 0 7.36 0 0 5.76 308.256 88.096 20.176 0L863.792 704 816.864 704zM493.184 64 192 155.712 192 672l12.48 0L496 627.344 496 64 493.184 64zM831.776 155.776l-303.792-86.832L527.984 627.376 819.296 672l12.48 0L831.776 155.776z"  horiz-adv-x="1024" />

    
    <glyph glyph-name="icon" unicode="&#58902;" d="M527.520485-47.010431c-247.27171 0-447.725114 200.452381-447.725114 447.725114S280.247752 848.438775 527.520485 848.438775s447.725114-200.452381 447.725114-447.725114S774.792195-47.010431 527.520485-47.010431zM464.847074 565.791369c-94.005001 0-170.20959-56.710606-170.20959-126.668934 0-42.038442 27.517727-79.297021 69.885674-102.337783-0.11461-0.370437-33.750685-61.563124-33.750685-61.563124s102.707197 39.167045 102.991676 39.339983c10.077519-1.38351 20.465101-2.106987 31.082926-2.106987 94.000907 0 170.207543 56.710606 170.207543 126.667911C635.054617 509.080763 558.849004 565.791369 464.847074 565.791369zM610.976222 526.206816c111.338784-110.911042-19.792788-229.089605-126.668934-229.089605 0 0 11.880585-24.24724 105.889679-24.24724 10.614755 0 21.002336 0.723477 31.079856 2.106987 0.284479-0.172939 102.991676-39.341007 102.991676-39.341007s-33.636075 61.193711-33.750685 61.564148c42.3659 23.040762 69.885674 60.298318 69.885674 102.337783C760.403486 469.497233 688.652326 525.712559 610.976222 526.206816z"  horiz-adv-x="1024" />

    
    <glyph glyph-name="duihaoicon" unicode="&#58955;" d="M842.825173-56.504666 178.476369-56.504666c-61.170175 0-110.724801 49.555649-110.724801 110.724801L67.751568 718.567915c0 61.131289 49.553603 110.724801 110.724801 110.724801l664.348804 0c61.168128 0 110.723777-49.593512 110.723777-110.724801l0-664.34778C953.54895-6.949017 903.993301-56.504666 842.825173-56.504666L842.825173-56.504666zM887.106702 696.407196c0 36.702923-29.743418 66.443271-66.401316 66.443271L200.596156 762.850467c-36.660968 0-66.401316-29.740348-66.401316-66.443271l0-620.024296c0-36.700877 29.740348-66.443271 66.401316-66.443271l620.10923 0c36.656875 0 66.401316 29.741371 66.401316 66.443271L887.106702 696.407196 887.106702 696.407196zM488.777601 235.467105c-1.482771-5.106298-3.831258-10.009981-7.867178-14.046924l-15.652492-15.652492c-12.976546-12.975523-34.024931-12.975523-47.000454 0L230.337527 393.685593c-12.93459 12.93459-12.93459 33.983999 0 46.959521l15.694447 15.652492c12.975523 12.975523 33.982976 12.975523 46.959521 0l145.697313-145.697313 293.65818 293.659203c12.975523 12.976546 33.983999 12.976546 46.958498 0l15.653515-15.652492c12.976546-12.975523 12.976546-33.981952 0-46.959521L488.777601 235.467105 488.777601 235.467105zM488.777601 235.467105"  horiz-adv-x="1024" />

    
    <glyph glyph-name="iconfontwenda" unicode="&#58885;" d="M484.441122 761.312119c-37.444349-2.142338-71.442327-9.500805-106.185466-23.006851-42.474186-16.486691-81.222567-41.915316-112.891917-73.957246-13.599191-13.785482-18.815319-19.746771-27.664108-31.483059-33.252817-43.964509-52.068137-92.399985-57.004829-146.703605-1.210887-13.506046-0.745161-39.866122 1.024597-54.48991 8.196773-68.275392 39.866122-128.354011 93.145146-176.975777 17.418142-15.834675 36.419752-30.272172 55.235071-41.82217 3.912096-2.514919 7.172176-4.936693 7.172176-5.495564 0-0.465726-6.892741-23.658867-15.275804-51.322975-8.476208-27.757253-15.555239-51.788701-15.92782-53.372169-0.372581-1.769758 0-5.122983 0.838306-8.010483 1.862903-6.33387 7.358467-11.643143 14.996368-14.530643 12.015724-4.470967 37.071768-4.470967 58.215716 0.093145 22.820561 4.843548 49.739508 16.579836 71.442327 31.110479 18.535884 12.48145 22.63427 17.231852 22.63427 26.639512 0 6.240725-2.514919 10.618547-7.172176 12.574595-6.427015 2.701209-13.878627-0.279435-30.272172-12.108869-18.349594-13.226611-43.964509-24.590318-65.015312-28.96814-12.202014-2.514919-32.600801-4.284677-32.600801-2.8875 0 0.279435 6.985886 23.845157 15.462094 52.347572 17.045562 57.5637 17.045562 57.470555 12.108869 65.853618-2.514919 4.284677-3.632661 5.122983-22.63427 16.300401-58.122571 34.277414-102.552806 89.139905-122.206431 150.42941-8.289918 25.801205-11.549998 47.131444-11.549998 75.074988-0.093145 20.491932 1.210887 32.693946 5.495564 51.881846 19.839916 89.326195 93.145146 166.17094 188.525775 197.747145 32.507656 10.711692 61.475796 15.275804 96.870952 15.182659 29.340721 0 48.994347-2.608064 76.56531-10.059676 34.92943-9.500805 73.30523-28.874995 101.341919-51.322975 11.549998-9.314515 32.600801-30.085882 41.63588-41.356445 30.737898-38.003219 49.180637-80.01168 56.725394-129.471753 2.142338-13.506046 2.421774-52.627007 0.558871-66.133054-6.70645-47.410879-25.056044-90.350791-54.769346-127.60885-8.848789-10.991127-30.644753-32.693946-42.287896-41.915316-47.224589-37.537494-104.229418-59.054022-167.661262-63.338699-16.11411-1.024597-19.094755-2.049193-23.658867-7.731047-2.608064-3.26008-2.8875-4.191532-2.8875-10.432256 0-6.52016 0.18629-7.079031 3.166935-10.152821 1.676613-1.769758 5.309273-4.191532 7.917337-5.309273 4.098386-1.862903 6.14758-2.142338 14.437498-1.956048 12.48145 0.18629 32.600801 2.421774 48.062895 5.402418 74.981842 14.344352 142.046347 54.955636 187.594324 113.543933 31.948785 41.077009 51.41612 86.997566 59.426603 140.64917 2.049193 14.064917 2.328629 60.078619 0.465726 74.050391-12.202014 88.487889-59.892329 163.376586-135.153607 212.557223-40.238703 26.173786-87.463292 43.126203-136.085058 48.621766-12.85403 1.490322-41.2633 2.514919-52.161282 1.862903zM621.271342 581.728278c-23.286286-4.936693-44.057654-21.609674-53.558459-43.126203-5.681854-12.760885-8.010483-31.762495-4.750402-38.18951 4.564112-8.755644 17.045562-10.991127 24.124593-4.284677 4.098386 3.818951 5.309273 6.799596 5.961289 14.437498 2.142338 23.472577 19.37419 39.866122 41.82217 39.866122 24.590318 0 44.430235-23.565722 40.704429-48.435476-1.862903-12.66774-4.843548-17.138707-23.193141-34.92943-17.604433-17.045562-22.820561-23.472577-27.664108-34.184269-3.818951-8.289918-5.122983-13.692336-5.774999-22.913706-0.465726-6.240725-0.279435-7.731047 1.676613-11.270563 1.210887-2.328629 3.26008-4.936693 4.564112-5.961289 4.936693-3.632661 13.506046-3.632661 18.349594 0 4.470967 3.353225 5.774999 6.14758 7.079031 14.996368 2.142338 13.878627 3.818951 16.579836 24.869754 37.444349 13.878627 13.785482 19.1879 19.746771 22.0754 24.683464 21.795964 37.537494 7.544757 85.600389-31.017334 104.788289-5.122983 2.608064-11.829434 5.309273-14.903223 6.14758-7.824192 2.049193-22.820561 2.514919-30.365318 0.931451zM316.034699 566.266184c-9.40766-4.284677-10.152821-18.908465-1.210887-24.869754l3.166935-2.142338 97.709258 0c85.507244 0 98.174984 0.18629 100.783048 1.397177 8.662499 4.098386 8.755644 18.722174 0.279435 25.056044-2.608064 1.956048-2.701209 1.956048-99.665306 2.142338-94.542323 0.279435-97.150387 0.18629-101.062483-1.583467zM316.034699 461.94362c-3.166935-1.397177-4.377822-2.701209-5.961289-6.14758-3.26008-7.451612-1.210887-15.182659 5.122983-19.094755 2.8875-1.769758 5.122983-1.769758 101.90079-1.583467l99.01329 0.279435 2.794354 2.8875c6.892741 6.892741 4.843548 19.467335-3.818951 23.845157-2.980645 1.583467-9.59395 1.676613-99.106435 1.676613-93.052001 0-96.032645-0.093145-99.944741-1.862903zM625.462873 374.946054c-13.226611-6.14758-16.486691-24.031448-6.33387-34.463704 4.936693-5.122983 8.383063-6.52016 15.275804-6.52016 12.947175 0 21.423384 8.848789 21.423384 22.26169-0.093145 15.462094-16.11411 25.33548-30.365318 18.722174zM317.338731 358.552509c-3.725806-1.117742-5.868144-3.353225-7.637902-8.010483-1.862903-4.936693-1.210887-11.177417 1.676613-14.903223 4.191532-5.216128-0.093145-5.029838 105.254015-5.029838 94.635468 0 97.243532 0.093145 100.131032 1.862903 4.470967 2.701209 6.14758 5.868144 6.14758 11.643143 0 5.588709-2.049193 9.873385-6.14758 12.947175l-2.608064 1.956048-97.057242 0.18629c-53.372169 0.093145-98.268129-0.18629-99.758451-0.652016z"  horiz-adv-x="1024" />

    
    <glyph glyph-name="yuedureading19" unicode="&#58893;" d="M860.598617-126.400915l141.300989 37.845018c25.585364 6.880912 40.84936 32.999305 33.823076 59.359983L797.458977 859.895496c-6.929369 25.924564-33.677705 41.285474-58.923869 34.501476l-141.300989-37.845018c-25.633821-6.880912-40.84936-32.999305-33.823076-59.359983l238.215248-889.091409C808.604117-117.824003 835.303995-133.136456 860.598617-126.400915zM194.264631-124.801829C220.770681-124.801829 242.285647-103.480693 242.285647-76.199329L242.285647 844.243843c0 26.84525-21.854165 48.554044-48.021015 48.554044L48.021015 892.797886C21.514965 892.797886 0 871.525207 0 844.243843l0-920.443172c0-26.84525 21.854165-48.554044 48.021015-48.554044L194.264631-124.753372zM485.007407-124.801829c26.50605 0 48.021015 21.27268 48.021015 48.554044L533.028423 844.243843c0 26.84525-21.854165 48.554044-48.021015 48.554044L338.763791 892.797886C312.257741 892.797886 290.742776 871.525207 290.742776 844.243843l0-920.443172c0-26.84525 21.854165-48.554044 48.021015-48.554044L485.007407-124.753372z"  horiz-adv-x="1038" />

    
    <glyph glyph-name="shipin" unicode="&#58918;" d="M896.002353-128.000013 127.997647-128.000013c-75.415094 0-127.997659 52.582565-127.997659 127.997659l0 768.004706c0 75.415094 52.582565 127.997659 127.997659 127.997659l768.004706 0c75.415094 0 127.997659-52.582565 127.997659-127.997659l0-768.004706C1024.000013-75.417447 971.417447-128.000013 896.002353-128.000013L896.002353-128.000013zM42.666291 725.33105l0-85.332606 170.668963 0-82.895103 207.231508C77.397584 831.834933 42.666291 786.332376 42.666291 725.33105L42.666291 725.33105zM213.335253 853.333709 298.667859 639.998444l127.977659 0-85.312606 213.335266L213.335253 853.333709 213.335253 853.333709zM426.645519 853.333709l85.357606-213.335266L640.000784 639.998444l-85.332606 213.335266L426.645519 853.333709 426.645519 853.333709zM640.000784 853.333709l85.332606-213.335266 128.002659 0-85.337606 213.335266L640.000784 853.333709 640.000784 853.333709zM981.333709 725.33105c0 75.420094-52.582565 128.002659-127.997659 128.002659l85.332606-213.335266 42.665053 0L981.333709 725.33105 981.333709 725.33105zM981.333709 597.332141l-938.667419 0 0-554.668191c0-75.415094 52.582565-127.997659 128.002659-127.997659l682.6671 0c75.415094 0 127.997659 52.582565 127.997659 127.997659L981.333709 597.332141 981.333709 597.332141zM341.332912 469.334481l384.000478-213.335266-384.000478-213.335266L341.332912 469.334481 341.332912 469.334481zM341.332912 469.334481"  horiz-adv-x="1024" />

    
    <glyph glyph-name="shopping" unicode="&#58886;" d="M708.716 99.705h-472.926c-91.621 0-167.074 74.105-167.074 167.074l-0 233.095c0 91.621 74.105 167.074 167.074 167.074h432.505c14.821 0 26.947-12.126 26.947-26.947s-12.126-26.947-26.947-26.947h-432.505c-61.979 0-113.179-49.853-113.179-113.179v-234.442c0-61.979 49.853-113.179 113.179-113.179h474.274c61.979 0 113.179 49.853 113.179 113.179 0 0 0 281.6 0 388.042 0 52.547 14.821 92.968 44.463 121.263 39.074 36.379 90.274 33.684 92.968 33.684 14.821-1.347 25.6-13.474 25.6-28.295-1.347-14.821-13.474-25.6-28.295-25.6 0 0-30.989 1.347-52.547-20.211-17.516-16.168-26.947-44.463-26.947-80.842 0-106.442 0-388.042 0-388.042-2.695-90.274-76.8-165.726-169.768-165.726zM668.295 441.937h-390.737c-14.821 0-26.947 12.126-26.947 26.947s12.126 26.947 26.947 26.947h390.737c14.821 0 26.947-12.126 26.947-26.947s-12.126-26.947-26.947-26.947zM668.295 272.168h-390.737c-14.821 0-26.947 12.126-26.947 26.947s12.126 26.947 26.947 26.947h390.737c14.821 0 26.947-12.126 26.947-26.947s-12.126-26.947-26.947-26.947zM793.6 9.432c-0-29.765 24.129-53.895 53.895-53.895s53.895 24.129 53.895 53.895c0 29.765-24.129 53.895-53.895 53.895-29.765 0-53.895-24.129-53.895-53.895zM55.242 9.432c0-29.765 24.129-53.895 53.895-53.895 29.765 0 53.895 24.129 53.895 53.895 0 29.765-24.129 53.895-53.895 53.895-29.765 0-53.895-24.129-53.895-53.895z"  horiz-adv-x="1024" />

    
    <glyph glyph-name="1401gouwuche" unicode="&#58937;" d="M932.68783 339.032856 932.68783 621.174748c0 16.020882-12.053524 29.007661-26.923186 29.007661l-652.037407 0.684592-25.382087 87.215364c-6.013971 20.665669-28.418236 32.651654-51.786457 28.729322l-78.534658 0c-20.169365 0-36.519752-23.223934-36.519752-51.872415 0-28.64848 16.349363-51.872415 36.519752-51.872415l51.961442 0 140.956336-484.33901c3.710508-12.750395 13.663184-22.195511 26.228361-26.644847 4.669346-2.00261 9.727549-3.107781 15.015995-3.107781l554.566468 0c23.438828 0 42.441625 21.535479 42.441625 48.101531 0 26.564006-19.001773 48.099485-42.441625 48.099485L667.228899 245.176235l238.536768 64.84896C920.634306 310.025195 932.68783 323.011974 932.68783 339.032856zM838.548776 376.8256 380.286678 246.518812c-4.114714 0-7.800663 1.943258-10.339486 5.01113l-89.163739 306.373783c1.308809 6.783497 6.885827 11.880585 13.571087 11.880585l544.051997-0.980327c7.656377 0 13.863752-6.687306 13.863752-14.937201l0.143263-162.106028C852.412528 383.512906 846.206176 376.8256 838.548776 376.8256zM409.784502 12.960429m-74.507948 0a72.811 72.811 0 1 0 149.015895 0 72.811 72.811 0 1 0-149.015895 0ZM791.736611 13.121088m-74.507948 0a72.811 72.811 0 1 0 149.015895 0 72.811 72.811 0 1 0-149.015895 0Z"  horiz-adv-x="1024" />

    
    <glyph glyph-name="icon1" unicode="&#58960;" d="M391.45453 709.754179c-180.798762 0-327.366909-111.912859-327.366909-249.956865 0-82.96455 52.92949-156.487054 134.411269-201.951525-0.216941-0.732687-64.906266-121.484865-64.906266-121.484865s197.536982 77.290317 198.080358 77.633125c19.387559-2.736321 39.367613-4.158716 59.781548-4.158716 180.803879 0 327.372026 111.901603 327.372026 249.961982C718.826556 597.84132 572.258409 709.754179 391.45453 709.754179zM672.50967 631.638053c214.150358-218.863706-38.063921-452.070072-243.620553-452.070072 0 0 22.846334-47.847751 203.666586-47.847751 20.408819 0 40.387849 1.433652 59.775408 4.158716 0.543376-0.341784 198.080358-77.633125 198.080358-77.633125s-64.689325 120.751155-64.912405 121.489982c81.486896 45.459355 134.411269 118.986975 134.411269 201.945385C959.911356 519.725194 821.916469 630.660796 672.50967 631.638053z"  horiz-adv-x="1024" />

    
    <glyph glyph-name="duihao2" unicode="&#59123;" d="M150.1184 745.8816C250.2656 845.9264 370.8928 896 512 896c141.1072 0 261.7344-50.0736 361.8816-150.1184C973.9264 645.7344 1024 525.1072 1024 384c0-141.2096-50.0736-261.8368-150.1184-361.8816C773.7344-77.9264 653.1072-128 512-128c-141.1072 0-261.7344 50.0736-361.8816 150.1184C50.0736 122.1632 0 242.7904 0 384 0 525.1072 50.0736 645.7344 150.1184 745.8816zM512 854.1184c-85.2992 0-164.1472-20.8896-236.3392-62.7712C203.4688 749.568 146.432 692.5312 104.6528 620.3392 62.7712 548.0448 41.8816 469.2992 41.8816 384c0-129.6384 45.9776-240.4352 137.8304-332.288C271.5648-40.2432 382.3616-86.1184 512-86.1184c129.6384 0 240.4352 45.8752 332.288 137.8304C936.2432 143.5648 982.1184 254.3616 982.1184 384c0 129.6384-45.9776 240.3328-137.8304 332.288C752.4352 808.2432 641.6384 854.1184 512 854.1184zM718.7456 578.4576l44.3392-44.3392L433.2544 201.8304c-8.192-6.5536-15.5648-9.8304-22.1184-9.8304S397.1072 195.2768 388.9152 201.8304L251.0848 339.6608 295.424 384l115.712-115.712L718.7456 578.4576z"  horiz-adv-x="1024" />

    
    <glyph glyph-name="luntanxuanze" unicode="&#59114;" d="M455.111111 725.333333 113.898894 725.333333C50.887908 725.333333 0 674.369519 0 611.50247L0 156.784364C0 93.685407 50.92022 42.953503 113.73349 42.953503L172.21302 42.953503C187.973689 42.953503 198.184505 30.337391 195.307292 14.77463L181.350827-60.715733C169.909817-122.600124 204.185998-145.96709 257.868999-113.123009L464.356153 13.20906C491.464903 29.794603 538.455068 42.953503 569.888996 42.953503L796.386503 42.953503C859.102066 42.953503 910.222222 93.917315 910.222222 156.784364L910.222222 611.50247C910.222222 674.601426 859.227961 725.333333 796.323328 725.333333L512.309988 725.333333 512.309988 811.219408C512.309988 826.893258 525.251726 839.599423 540.501248 839.599423L1052.603563 839.599423C1068.17317 839.599423 1080.794823 826.778422 1080.794823 810.910009L1080.794823 469.367854C1080.794823 453.523129 1068.194816 440.67844 1052.108743 440.67844L1023.9552 440.67844C992.56357 440.67844 967.115605 415.234213 967.115605 383.630279L967.115605 400.929573C967.115605 385.143677 956.280519 379.430502 943.28357 387.927708L910.919879 409.086589 910.919879 350.331489 931.15702 335.95588C982.49674 299.486367 1024.115769 320.887504 1024.115769 383.522142L1024.115769 355.687228C1024.115769 371.240522 1036.71387 383.848957 1052.797497 383.848957L1080.946773 383.848957C1112.333682 383.848957 1137.777778 409.246609 1137.777778 440.614906L1137.777778 839.234051C1137.777778 870.58502 1112.262372 896 1080.748174 896L512.140715 896C480.644124 896 455.111111 870.737286 455.111111 838.989346L455.111111 725.333333 455.111111 725.333333ZM170.666667 298.666667C170.666667 314.376098 183.465216 327.111111 199.305813 327.111111L540.249742 327.111111C556.066702 327.111111 568.888889 314.485623 568.888889 298.666667 568.888889 282.957235 556.09034 270.222222 540.249742 270.222222L199.305813 270.222222C183.488853 270.222222 170.666667 282.84771 170.666667 298.666667L170.666667 298.666667ZM170.666667 469.333333C170.666667 485.042765 183.617593 497.777778 198.877952 497.777778L711.34427 497.777778C726.924942 497.777778 739.555556 485.15229 739.555556 469.333333 739.555556 453.623902 726.604629 440.888889 711.34427 440.888889L198.877952 440.888889C183.29728 440.888889 170.666667 453.514377 170.666667 469.333333L170.666667 469.333333Z"  horiz-adv-x="1138" />

    
    <glyph glyph-name="luntan" unicode="&#59115;" d="M1079.168215 896 511.184944 896c-31.23908 0-56.798327-25.559247-56.798327-56.798327l0-113.596654L113.596654 725.605019c-62.47816 0-113.596654-51.118494-113.596654-113.596654l0-454.386617c0-62.47816 51.118494-113.596654 113.596654-113.596654l59.638243 0c17.039498 0 25.559247-11.359665 22.719331-28.399164l-14.199582-76.677742c-11.359665-62.47816 22.719331-85.197491 76.677742-51.118494l207.313894 124.95632c28.399164 17.039498 73.837825 28.399164 105.076905 28.399164l227.193308 0c62.47816 0 113.596654 51.118494 113.596654 113.596654l0 193.114312 0 0 19.879414-14.199582C979.771143 299.617565 1022.369888 322.336896 1022.369888 384.815056l0-28.399164c0 14.199582 11.359665 28.399164 28.399164 28.399164l28.399164 0c31.23908 0 56.798327 25.559247 56.798327 56.798327L1135.966542 839.201673C1135.966542 870.440753 1110.407295 896 1079.168215 896zM851.974907 157.621748c0-31.23908-25.559247-56.798327-56.798327-56.798327l-241.39289 0c-31.23908 0-79.517658-14.199582-105.076905-31.23908l-184.594563-116.436571c-14.199582-8.519749-22.719331-2.839916-17.039498 11.359665L264.112221 44.025093c5.679833 31.23908-14.199582 56.798327-45.438662 56.798327L113.596654 100.82342c-31.23908 0-56.798327 25.559247-56.798327 56.798327L56.798327 612.008364c0 31.23908 25.559247 56.798327 56.798327 56.798327l681.579925 0c31.23908 0 56.798327-25.559247 56.798327-56.798327L851.974907 157.621748zM1079.168215 470.012547c0-17.039498-11.359665-28.399164-28.399164-28.399164l-28.399164 0c-31.23908 0-56.798327-25.559247-56.798327-56.798327l0 17.039498c0-17.039498-11.359665-22.719331-22.719331-14.199582L908.773234 410.374303l0 0L908.773234 612.008364c0 62.47816-51.118494 113.596654-113.596654 113.596654L511.184944 725.605019 511.184944 810.802509c0 14.199582 14.199582 28.399164 28.399164 28.399164l511.184944 0c14.199582 0 28.399164-14.199582 28.399164-28.399164L1079.168215 470.012547zM539.584108 328.016729 198.794145 328.016729c-17.039498 0-28.399164-11.359665-28.399164-28.399164 0-17.039498 14.199582-28.399164 28.399164-28.399164l340.789963 0c17.039498 0 28.399164 11.359665 28.399164 28.399164C567.983271 316.657063 553.783689 328.016729 539.584108 328.016729zM709.979089 498.41171 198.794145 498.41171c-14.199582 0-28.399164-11.359665-28.399164-28.399164 0-17.039498 11.359665-28.399164 28.399164-28.399164l511.184944 0c14.199582 0 28.399164 11.359665 28.399164 28.399164C738.378252 487.052045 727.018587 498.41171 709.979089 498.41171z"  horiz-adv-x="1136" />

    
    <glyph glyph-name="duihao" unicode="&#58887;" d="M414.245926 144.971852l437.57037 453.12c7.300741 7.49037 7.111111 19.531852-0.474074 26.832593-7.49037 7.300741-19.531852 7.111111-26.832593-0.474074L398.506667 183.277037 199.111111 382.672593c-7.395556 7.395556-19.437037 7.395556-26.832593 0l0 0c-7.395556-7.395556-7.395556-19.437037 0-26.832593l212.574815-212.574815c6.731852-6.731852 17.161481-7.300741 24.557037-1.896296C411.211852 142.317037 412.823704 143.454815 414.245926 144.971852z"  horiz-adv-x="1024" />

    
    <glyph glyph-name="luntan1" unicode="&#58931;" d="M879.694895 833.761494 144.719544 833.761494c-44.509726 0-80.72044-40.518832-80.72044-90.322122l0-604.163049c0-49.823755 36.210713-90.358961 80.72044-90.358961l266.149663 0 101.354386-113.530706 101.285824 113.530706 266.180362 0c44.49233 0 80.68974 40.534182 80.68974 90.358961L960.379519 743.439372C960.379519 793.243685 924.185178 833.761494 879.694895 833.761494zM512.244059 24.21475l-72.915683 82.928734L159.102113 107.143485c-23.779589 0-43.125193 22.045085-43.125193 49.14121L115.97692 730.007455c0 27.099195 19.345604 49.145303 43.125193 49.145303l706.289008 0c23.74275 0 43.059702-22.046109 43.059702-49.145303l-0.007163-573.72276c0-27.096125-19.313881-49.14121-43.052538-49.14121L585.09425 107.143485 512.244059 24.21475zM776.022721 392.674567 271.482623 392.674567c-17.663288 0-32.033577-13.017478-32.033577-29.017894 0-16.000416 14.370289-29.015847 32.033577-29.015847l504.540098 0c17.680684 0 32.066323 13.016455 32.066323 29.015847C808.089044 379.657088 793.703405 392.674567 776.022721 392.674567zM776.022721 568.288237 271.482623 568.288237c-17.663288 0-32.033577-13.030781-32.033577-29.048593 0-15.98302 14.370289-28.986171 32.033577-28.986171l504.540098 0c17.680684 0 32.066323 13.003152 32.066323 28.986171C808.089044 555.256432 793.703405 568.288237 776.022721 568.288237z"  horiz-adv-x="1024" />

    
    <glyph glyph-name="yingwenyuyan" unicode="&#59292;" d="M874.749 135.771h-36.621v-73.245c0-40.455-32.801-73.249-73.249-73.249h-622.622c-40.448 0-73.241 32.793-73.241 73.249v512.738c0 40.455 32.793 73.249 73.241 73.249h36.627v73.252c0 40.455 32.793 73.245 73.252 73.245h622.611c40.46 0 73.252-32.789 73.252-73.245v-512.741c0-40.458-32.793-73.253-73.252-73.253zM142.257 611.892c-20.224 0-36.621-16.4-36.621-36.627v-512.738c0-20.227 16.397-36.627 36.621-36.627h622.622c20.224 0 36.621 16.4 36.621 36.627v512.738c0 20.227-16.397 36.627-36.621 36.627h-622.622zM911.374 721.765c0 20.227-16.397 36.621-36.624 36.621h-622.612c-20.23 0-36.627-16.394-36.627-36.621v-73.252h549.371c40.448 0 73.249-32.793 73.249-73.249v-402.864h36.621c20.227 0 36.624 16.397 36.624 36.624v512.743zM618.378 318.897c0 0 4.262 36.621-36.627 36.621-16.672 0-36.621-8.017-36.621-36.621v-146.498h-73.249v219.746c0 0 69.371 0 146.498 0-2.187 0 73.249 4.516 73.249-73.249v-146.498h-73.249v146.499zM215.51 502.018h219.747v-36.627h-146.498v-109.873h109.87v-36.621h-109.87v-109.873h146.498v-36.624h-219.747v329.619z"  horiz-adv-x="1024" />

    
    <glyph glyph-name="shoppingbagalt" unicode="&#58894;" d="M990.549333-128l-955.733333 0 102.4 819.2 139.912533 0c16.6912 115.643733 115.3024 204.8 235.554133 204.8s218.760533-89.156267 235.451733-204.8l140.014933 0L990.549333-128zM512.682667 827.733333c-82.500267 0-150.596267-58.743467-166.5024-136.533333l333.038933 0C663.278933 768.989867 595.1488 827.733333 512.682667 827.733333zM191.249067 622.933333 103.082667-59.733333l819.2 0-85.333333 682.666667L191.249067 622.933333zM666.282667 452.266667c-28.2624 0-51.2 22.9376-51.2 51.234133 0 28.2624 22.9376 51.165867 51.2 51.165867s51.2-22.903467 51.2-51.165867C717.482667 475.170133 694.545067 452.266667 666.282667 452.266667zM359.082667 452.266667c-28.296533 0-51.2 22.9376-51.2 51.234133 0 28.2624 22.903467 51.165867 51.2 51.165867s51.2-22.903467 51.2-51.165867C410.282667 475.170133 387.345067 452.266667 359.082667 452.266667z"  horiz-adv-x="1024" />

    
    <glyph glyph-name="luntan2" unicode="&#58943;" d="M929.397092 10.945334H91.30395c-15.479098 0-28.029885 12.550786-28.029885 28.029885V378.449518c0 10.784584 6.186315 20.625146 15.917322 25.278704l148.893404 71.305422-41.086471 57.756348a28.110772 28.110772 0 0 0-5.187003 16.245988V655.514934c0 74.370934 59.521526 132.634105 135.508151 132.634105s135.508151-58.262147 135.508151-132.634105v-106.478954a28.084151 28.084151 0 0 0-4.926936-15.876366l-42.167693-61.328683 73.207801-48.216808-30.820996-46.821252-97.09095 63.928328a28.064697 28.064697 0 0 0-12.098229 18.038812 28.03398 28.03398 0 0 0 4.406802 21.254835l53.431456 77.724159v97.774905c0 42.933559-34.900155 76.574336-79.448382 76.574336-44.54925 0-79.449406-33.640776-79.449406-76.574336v-97.528148l55.196634-77.601293a28.055482 28.055482 0 0 0 4.297247-23.26677 28.005311 28.005311 0 0 0-15.027565-18.257923l-163.003567-78.066137v-293.789559h782.034396V361.122306l-155.969476 77.943271a27.987905 27.987905 0 0 0-14.616987 18.066456 28.065721 28.065721 0 0 0 4.03718 22.883837l53.431456 77.724159v97.774905c0 42.933559-34.900155 76.574336-79.449406 76.574336-44.54925 0-79.449406-33.640776-79.449405-76.574336v-97.528149l55.196634-77.601292a28.047291 28.047291 0 0 0 4.789735-20.940503 28.042171 28.042171 0 0 0-11.427584-18.174988l-90.274945-63.928328-32.409042 45.740029 67.363463 47.696674-44.111028 62.012638a28.008383 28.008383 0 0 0-5.187003 16.245989V655.514934c0 74.370934 59.521526 132.634105 135.508151 132.634105s135.508151-58.262147 135.508151-132.634105v-106.478954a28.084151 28.084151 0 0 0-4.926936-15.876366l-40.114803-58.345081 142.651799-71.292112a28.013502 28.013502 0 0 0 15.506743-25.072903V38.974195c0.002048-15.479098-12.548739-28.028861-28.027836-28.028861z"  horiz-adv-x="1024" />

    
    <glyph glyph-name="luntan3" unicode="&#58890;" d="M378.664 352h288.024L680 341.64l43.92-34.168L832 223.4V352h34.664c19.224 0 35.984 7.504 49.568 21.096C929.84 386.688 936 404.768 936 424V760c0 19.232-6.16 37.312-19.768 50.912C902.64 824.512 885.888 832 866.664 832h-488c-19.232 0-38.648-7.488-52.248-21.088C312.824 797.312 304 779.232 304 760v-336c0-19.232 8.824-37.312 22.416-50.904 13.6-13.6 33.016-21.096 52.248-21.096zM352 688v72c0 6.408 3.832 12.44 8.36 16.976 4.536 4.528 11.896 7.024 18.304 7.024h488c6.416 0 11.104-2.496 15.64-7.024 4.528-4.536 5.696-10.568 5.696-16.976v-336c0-6.416-1.168-12.44-5.704-16.968s-9.216-7.032-15.632-7.032H784v-79.4L744.312 352 728 364.768 682.952 400H378.664c-6.408 0-13.768 2.504-18.304 7.04C355.832 411.56 352 417.584 352 424V688zM335.984 232H624c19.232 0 37.312 9.504 50.904 23.096 7.792 7.784 13.504 17.72 17.016 28.376L648 317.64V308c0-6.424-2.504-14.44-7.032-18.96-4.528-4.544-10.56-9.04-16.968-9.04H319.712l-62.696-46L216 204.6V280H136c-6.408 0-12.44 4.504-16.968 9.032-4.536 4.528-7.032 12.544-7.032 18.968v336c0 6.408 2.496 10.44 7.024 14.976C123.56 663.504 129.592 664 136 664h136v48H136c-19.232 0-37.312-5.488-50.912-19.088C71.488 679.312 64 663.232 64 644v-336c0-19.232 7.496-39.312 21.088-52.904C98.68 241.496 116.768 232 136 232h32v-124.6L335.984 232zM948.504 342.576c-10.472-10.456-22.672-18.144-36.504-21.16v-184.832c0-6.424-2.504-12.752-7.032-17.272S894.408 112 888 112h-80v-78.8l-41.016 31.096L704.28 112H400c-6.408 0-12.44 2.8-16.976 7.344A24.48 24.48 0 0 0 376 136.6V176h-32.016L328 164.016v-27.416c0-19.232 7.496-37.616 21.088-51.208 13.6-13.592 31.68-21.392 50.912-21.392h288.016L856-64v128h32c19.232 0 37.312 7.8 50.904 21.392S960 117.368 960 136.6V358.872a61.784 61.784 0 0 0-11.496-16.296z"  horiz-adv-x="1024" />

    
    <glyph glyph-name="yuedu1" unicode="&#58896;" d="M945.578667 850.926933c-15.428267 1.7408-117.896533 14.9504-221.781334 14.9504-90.026667 0-150.391467-18.7392-172.6464-30.173866-6.621867-3.003733-23.773867-11.485867-39.150933-24.7296-15.377067 13.243733-32.529067 21.7088-39.150933 24.7296-22.272 11.434667-82.619733 30.173867-172.6464 30.173866-103.901867 0-206.353067-13.2096-221.781334-14.9504C35.003733 849.9712 0 814.506667 0 771.054933v-770.833066c0-43.6224 35.2768-79.189333 78.916267-79.889067l1.058133-0.017067c1.3312 0 2.696533 0.085333 4.096 0.256 11.588267 1.467733 72.840533 9.0624 140.936533 13.7728 119.876267 8.2944 147.933867 1.2288 164.522667-3.720533l0.2048-0.0512 0.904533-0.256 0.6144-0.1536 0.699734-0.1536 0.836266-0.1536 0.256-0.0512c7.8336-1.297067 19.541333-5.137067 31.9488-9.216 25.088-8.226133 56.285867-18.4832 87.005867-18.4832 25.873067 0 54.442667 8.157867 82.0736 16.042667 19.421867 5.546667 39.492267 11.264 50.466133 11.264 3.584 0 6.997333 0.6656 10.154667 1.860266 138.325333 19.370667 282.180267-10.171733 283.818667-10.478933l2.6112-0.477867h2.6624c44.2368 0 80.2304 35.84 80.2304 79.889067V771.054933c-0.017067 43.451733-35.037867 78.916267-78.4384 79.872zM442.88-25.361067c-13.806933 4.539733-26.862933 8.8064-38.570667 10.9568-80.554667 22.869333-277.777067-2.304-325.512533-8.328533a23.057067 23.057067 0 0 0-21.6576 22.954667V771.054933c0 12.680533 10.359467 23.005867 23.0912 23.005867h1.655467l1.6384 0.187733c1.28 0.1536 111.172267 14.7456 216.6784 14.7456 78.5408 0 130.2528-15.6672 146.807466-24.0128l0.529067-0.3072 1.0752-0.477866c15.5648-7.031467 32.580267-19.8144 34.833067-26.094934v-791.108266c0-1.467733 0.119467-2.9184 0.324266-4.334934-13.755733 3.072-27.835733 7.68-40.891733 11.9808z m523.9808 25.582934c0-11.9808-9.250133-21.8624-21.026133-22.903467-25.088 4.437333-165.5808 30.498133-305.578667 9.3696a28.16 28.16 0 0 1-3.208533-0.682667c-17.408-1.365333-37.563733-7.1168-58.7264-13.1584-12.3904-3.5328-25.668267-7.3216-38.075734-10.0352a27.989333 27.989333 0 0 1 0.3072 4.164267V758.084267c2.235733 6.280533 19.2512 19.063467 34.7648 26.0608l0.682667 0.273066 0.9728 0.529067c16.520533 8.3456 68.2496 24.029867 146.824533 24.029867 105.5232 0 215.3984-14.592 216.6784-14.7456l1.6384-0.187734h1.655467c12.731733 0 23.0912-10.325333 23.0912-23.005866v-770.816zM125.184 468.855467c30.788267 7.645867 70.4 21.896533 167.2704 21.9136 51.234133-0.597333 83.370667-7.970133 118.510933-27.170134a28.5696 28.5696 0 0 1 38.775467 11.264 28.381867 28.381867 0 0 1-11.298133 38.621867c-43.741867 23.893333-84.548267 33.4848-145.5104 34.184533h-0.324267c-103.9872 0-148.087467-15.36-181.265067-23.6032a28.433067 28.433067 0 0 1-20.7872-34.491733 28.552533 28.552533 0 0 1 34.628267-20.718933zM439.825067 280.9344c-3.157333 1.416533-78.2848 34.577067-147.2 34.577067-101.649067 0-122.555733-10.461867-159.829334-20.565334-5.768533-1.553067-11.195733-3.037867-16.9472-4.488533a28.450133 28.450133 0 1 1 14.097067-55.1424c6.1952 1.570133 12.117333 3.1744 17.851733 4.727467 35.208533 9.557333 50.824533 18.568533 144.827734 18.568533 56.541867 0 123.1872-29.320533 123.835733-29.610667a28.603733 28.603733 0 0 1 37.7344 14.336 28.398933 28.398933 0 0 1-14.370133 37.597867zM909.653333 530.705067c-77.312 15.3088-115.8656 25.019733-188.381866 20.309333-79.274667-0.238933-133.870933-29.559467-136.174934-30.805333a28.398933 28.398933 0 0 1-11.3152-38.621867 28.5696 28.5696 0 0 1 38.775467-11.264c0.443733 0.238933 45.397333 23.808 109.6704 23.808h0.955733l0.955734 0.068267c65.9456 4.386133 101.205333-4.795733 174.370133-19.285334a28.552533 28.552533 0 0 1 33.5872 22.357334 28.450133 28.450133 0 0 1-22.442667 33.4336z"  horiz-adv-x="1024" />

    
    <glyph glyph-name="duihao1" unicode="&#58932;" d="M380.416 73.856c-10.432 0-20.864 3.968-28.8 11.968L75.968 361.408c-15.936 15.936-15.936 41.664 0 57.6 15.872 15.872 41.664 15.872 57.536 0L380.416 172.16l510.08 510.016c15.872 15.936 41.664 15.936 57.536 0 15.936-15.936 15.936-41.664 0-57.6L409.216 85.76c-7.936-7.936-18.368-11.904-28.8-11.904z"  horiz-adv-x="1024" />

    
    <glyph glyph-name="youxi" unicode="&#58884;" d="M878.216 415.514c-80.717 0-145.786-63.39-145.786-142.026 0-78.634 65.07-142.026 145.786-142.026S1024 194.854 1024 273.488c-0.824 78.636-65.89 142.026-145.784 142.026z m68.361 85.86C890.57 706.788 704.426 844.803 482.044 844.803c-221.56 0-408.526-137.211-465.358-342.628C-40.146 296.759 51.279 88.936 244.01-15.38c192.733-105.112 425.825-73.017 580.668 78.638l-343.46 321.763 465.358 116.352zM406.27 634.572c0 48.948 40.357 89.067 88.951 89.067 49.42 0 88.955-40.12 88.955-89.067 0-48.949-40.36-89.068-88.955-89.068-48.594 0.801-88.951 40.12-88.951 89.068z"  horiz-adv-x="1024" />

    
    <glyph glyph-name="film-strip" unicode="&#59022;" d="M33.08 867.828h169.03v-967.646H33.08zM821.884 867.828h169.03v-967.646h-169.03zM202.104 796.638h619.78v-825.264h-619.78zM596.718 410.778c-47.466 0-84.71-52.926-84.71-52.926s-35.13 52.926-84.73 52.926c-48.244 0-87.642-39.792-90.22-87.972-1.45-27.22 7.322-47.934 19.684-66.694 24.704-37.482 132.706-127.722 155.426-127.722 23.188 0 130.23 89.91 155.098 127.722 12.388 18.846 21.138 39.474 19.68 66.694-2.58 48.178-41.98 87.972-90.228 87.972M990.92 896h-169.03c-15.556 0-28.172-12.616-28.172-28.172v-43.026H230.282V867.828C230.282 883.384 217.67 896 202.11 896H33.08C17.52 896 4.908 883.384 4.908 867.828v-967.656C4.908-115.384 17.52-128 33.08-128h169.03c15.56 0 28.172 12.616 28.172 28.172v43.026h563.436v-43.026c0-15.556 12.616-28.172 28.172-28.172h169.03c15.556 0 28.172 12.616 28.172 28.172V867.828C1019.092 883.384 1006.48 896 990.92 896z m-140.858-224.648h112.688v-213.562h-112.688V671.352z m0-269.906h112.688v-213.562h-112.688V401.446z m0 438.21h112.688v-111.96h-112.688V839.656zM173.938 457.79H61.252V671.352H173.94v-213.562z m-112.686-56.344H173.94v-213.562H61.252V401.446zM173.938 839.656V727.696H61.252v111.96h112.686z m0-911.312H61.252v203.2H173.94v-203.2z m56.344 71.198V536.128h431.856c15.556 0 28.172 12.616 28.172 28.172s-12.616 28.172-28.172 28.172H230.282V768.458h563.436v-768.916H230.282z m619.78-71.198V131.54h112.688v-203.2h-112.688v0.004zM772.222 575.062a27.978 27.978 0 0 1-2.592 4.874 28.726 28.726 0 0 1-3.522 4.282 27.034 27.034 0 0 1-4.284 3.494 28.762 28.762 0 0 1-4.846 2.592 30.168 30.168 0 0 1-5.268 1.606 27.904 27.904 0 0 1-11.016 0c-1.804-0.37-3.578-0.902-5.268-1.606a27.94 27.94 0 0 1-4.87-2.592c-1.55-1.014-2.99-2.198-4.284-3.494s-2.48-2.732-3.494-4.282a28.458 28.458 0 0 1-4.194-10.142 27.776 27.776 0 0 1-0.564-5.494c0-1.828 0.198-3.69 0.564-5.49 0.366-1.806 0.898-3.58 1.602-5.268 0.704-1.718 1.58-3.352 2.592-4.874 1.014-1.55 2.198-2.986 3.494-4.282s2.736-2.48 4.284-3.494a28.562 28.562 0 0 1 15.632-4.762c1.832 0 3.69 0.198 5.522 0.564a29.83 29.83 0 0 1 5.268 1.606 28.62 28.62 0 0 1 4.846 2.592 26.856 26.856 0 0 1 4.284 3.494 28.726 28.726 0 0 1 3.522 4.282c1.012 1.522 1.856 3.156 2.56 4.874 0.704 1.69 1.268 3.462 1.634 5.268 0.338 1.804 0.536 3.662 0.536 5.49 0 1.832-0.198 3.694-0.536 5.494a27.964 27.964 0 0 1-1.602 5.268zM596.716 438.952c-35.784 0-65.37-20.478-84.504-38.534-18.932 18.07-48.428 38.534-84.936 38.534-62.928 0-114.912-50.358-118.352-114.642-2.074-38.832 12.872-66.368 24.296-83.698 15.604-23.676 53.634-58.978 84.02-84.118 68.01-56.274 86.87-56.274 94.928-56.274 8.156 0 27.248 0 94.914 56.178 30.158 25.04 67.99 60.312 83.726 84.242 11.412 17.362 26.346 44.926 24.268 83.67-3.442 64.284-55.43 114.642-118.36 114.642z m47.01-167.36c-20.262-30.814-105.094-101.976-131.494-114.042-26.634 12.244-111.8 83.462-131.968 114.062-11.496 17.444-16.004 32.308-15.078 49.69 1.808 33.804 29.662 61.308 62.09 61.308 27.884 0 53.72-29.184 61.26-40.334 5.124-7.722 13.75-12.388 23.02-12.544 9.274-0.264 18.046 4.288 23.436 11.832 8.156 11.418 35.138 41.046 61.724 41.046 32.432 0 60.284-27.504 62.096-61.31 0.94-17.572-3.428-31.978-15.086-49.708z"  horiz-adv-x="1024" />

    
    <glyph glyph-name="right" unicode="&#59382;" d="M435.2 128L908.8 601.6 864 646.4 412.8 195.20000000000005l-230.4 230.4-44.8-44.8 252.8-252.8z"  horiz-adv-x="1024" />

    
    <glyph glyph-name="programmingwindo" unicode="&#58888;" d="M1015.848 208.18H8.156a7.992 7.992 0 0 0-7.998 7.996 7.994 7.994 0 0 0 7.998 7.998h1007.692a7.992 7.992 0 0 0 7.996-7.998 7.992 7.992 0 0 0-7.996-7.996zM512 128.234c-17.636 0-31.99 14.34-31.99 31.99s14.354 31.99 31.99 31.99 31.992-14.34 31.992-31.99-14.356-31.99-31.992-31.99z m0 47.984c-8.81 0-15.996-7.184-15.996-15.994s7.186-15.994 15.996-15.994c8.824 0 15.996 7.184 15.996 15.994s-7.172 15.994-15.996 15.994zM376.152-79.732a8.01 8.01 0 0 0-7.826 9.73l31.99 143.956c0.968 4.296 5.294 6.954 9.544 6.078a8.014 8.014 0 0 0 6.078-9.544l-31.99-143.956a8 8 0 0 0-7.796-6.264zM647.864-79.732a8 8 0 0 0-7.808 6.264l-31.988 143.956a8.01 8.01 0 0 0 6.074 9.544 7.99 7.99 0 0 0 9.542-6.078l31.992-143.956a8.008 8.008 0 0 0-7.812-9.73zM671.954-79.732H352.05a7.992 7.992 0 0 0-7.998 7.998 7.992 7.992 0 0 0 7.998 7.996h319.904a7.992 7.992 0 0 0 7.996-7.996 7.992 7.992 0 0 0-7.996-7.998zM967.86 255.914H56.14a7.994 7.994 0 0 0-7.998 7.998V791.75a7.994 7.994 0 0 0 7.998 7.998h911.72c4.422 0 8-3.578 8-7.998v-527.838a7.994 7.994 0 0 0-8-7.998z m-903.722 15.996h895.726V783.752H64.138v-511.842zM967.86 95.962H56.14c-30.866 0-55.982 25.118-55.982 55.982V791.75c0 30.866 25.118 55.982 55.982 55.982h911.72c30.868 0 55.984-25.118 55.984-55.982v-639.804c0-30.866-25.118-55.984-55.984-55.984zM56.14 831.738c-22.04 0-39.988-17.94-39.988-39.988v-639.804c0-22.054 17.948-39.986 39.988-39.986h911.72c22.058 0 39.988 17.932 39.988 39.986V791.75c0 22.048-17.93 39.988-39.988 39.988H56.14zM967.86 64.222H56.14c-31.38 0-55.982 24.586-55.982 55.982v31.99a7.994 7.994 0 0 0 7.998 7.998 7.994 7.994 0 0 0 7.998-7.998v-31.99c0-22.43 17.574-39.986 39.988-39.986h911.72c22.434 0 39.988 17.556 39.988 39.986v31.74a7.994 7.994 0 0 0 8 7.998 7.992 7.992 0 0 0 7.996-7.998v-31.74c-0.002-31.396-24.588-55.982-55.986-55.982zM88.13 255.914a7.994 7.994 0 0 0-7.998 7.998V791.75a7.994 7.994 0 0 0 7.998 7.998 7.994 7.994 0 0 0 7.998-7.998v-527.838a7.994 7.994 0 0 0-7.998-7.998zM72.136 735.768H56.14c-4.42 0-7.998 3.576-7.998 7.998s3.578 7.998 7.998 7.998h15.996c4.42 0 7.998-3.576 7.998-7.998s-3.578-7.998-7.998-7.998zM72.136 687.782H56.14c-4.42 0-7.998 3.578-7.998 7.998s3.578 7.998 7.998 7.998h15.996c4.42 0 7.998-3.578 7.998-7.998s-3.578-7.998-7.998-7.998zM72.136 639.796H56.14c-4.42 0-7.998 3.576-7.998 7.998s3.578 7.998 7.998 7.998h15.996c4.42 0 7.998-3.576 7.998-7.998s-3.578-7.998-7.998-7.998zM72.136 591.81H56.14c-4.42 0-7.998 3.578-7.998 7.998s3.578 7.998 7.998 7.998h15.996c4.42 0 7.998-3.578 7.998-7.998s-3.578-7.998-7.998-7.998zM72.136 543.826H56.14c-4.42 0-7.998 3.576-7.998 7.998s3.578 7.998 7.998 7.998h15.996c4.42 0 7.998-3.576 7.998-7.998s-3.578-7.998-7.998-7.998zM72.136 495.84H56.14a7.994 7.994 0 0 0-7.998 7.998 7.994 7.994 0 0 0 7.998 7.998h15.996a7.994 7.994 0 0 0 7.998-7.998 7.996 7.996 0 0 0-7.998-7.998zM72.136 447.856H56.14a7.994 7.994 0 0 0-7.998 7.998 7.994 7.994 0 0 0 7.998 7.998h15.996a7.994 7.994 0 0 0 7.998-7.998 7.994 7.994 0 0 0-7.998-7.998zM72.136 399.87H56.14a7.994 7.994 0 0 0-7.998 7.998 7.994 7.994 0 0 0 7.998 7.998h15.996a7.994 7.994 0 0 0 7.998-7.998 7.996 7.996 0 0 0-7.998-7.998zM72.136 351.884H56.14a7.994 7.994 0 0 0-7.998 7.998 7.992 7.992 0 0 0 7.998 7.996h15.996a7.992 7.992 0 0 0 7.998-7.996 7.994 7.994 0 0 0-7.998-7.998zM72.136 303.898H56.14c-4.42 0-7.998 3.578-7.998 7.998s3.578 7.998 7.998 7.998h15.996c4.42 0 7.998-3.578 7.998-7.998s-3.578-7.998-7.998-7.998zM200.096 735.768h-63.98c-4.42 0-7.998 3.576-7.998 7.998s3.576 7.998 7.998 7.998h63.98c4.42 0 7.998-3.576 7.998-7.998s-3.578-7.998-7.998-7.998zM488.006 687.782H264.076c-4.42 0-7.998 3.578-7.998 7.998s3.576 7.998 7.998 7.998h223.93c4.422 0 7.998-3.578 7.998-7.998s-3.576-7.998-7.998-7.998zM232.086 687.782H152.11c-4.42 0-7.998 3.578-7.998 7.998s3.578 7.998 7.998 7.998h79.976c4.42 0 7.998-3.578 7.998-7.998s-3.578-7.998-7.998-7.998zM679.95 639.796H472.012c-4.42 0-7.998 3.576-7.998 7.998s3.578 7.998 7.998 7.998h207.936c4.422 0 7.996-3.576 7.996-7.998s-3.572-7.998-7.994-7.998zM775.918 639.796h-63.98c-4.418 0-7.996 3.576-7.996 7.998s3.578 7.998 7.996 7.998h63.98c4.422 0 8-3.576 8-7.998s-3.578-7.998-8-7.998zM440.022 639.796H168.106c-4.42 0-7.998 3.576-7.998 7.998s3.576 7.998 7.998 7.998h271.916c4.42 0 7.998-3.576 7.998-7.998s-3.578-7.998-7.998-7.998zM216.09 543.826H168.106c-4.42 0-7.998 3.576-7.998 7.998s3.576 7.998 7.998 7.998h47.986c4.42 0 7.998-3.576 7.998-7.998s-3.58-7.998-8-7.998zM485.508 543.826H248.082c-4.42 0-7.998 3.576-7.998 7.998s3.578 7.998 7.998 7.998h237.428c4.42 0 7.998-3.576 7.998-7.998s-3.58-7.998-8-7.998zM551.988 591.81H184.1c-4.42 0-7.998 3.578-7.998 7.998s3.578 7.998 7.998 7.998h367.888c4.422 0 7.996-3.578 7.996-7.998s-3.574-7.998-7.996-7.998zM535.992 495.84h-143.956a7.994 7.994 0 0 0-7.998 7.998 7.994 7.994 0 0 0 7.998 7.998h143.956c4.422 0 8-3.578 8-7.998a7.994 7.994 0 0 0-8-7.998zM424.028 447.856H152.11a7.994 7.994 0 0 0-7.998 7.998 7.994 7.994 0 0 0 7.998 7.998h271.916a7.994 7.994 0 0 0 7.998-7.998 7.992 7.992 0 0 0-7.996-7.998zM280.072 351.884h-127.96a7.994 7.994 0 0 0-7.998 7.998 7.992 7.992 0 0 0 7.998 7.996h127.96a7.992 7.992 0 0 0 7.998-7.996 7.994 7.994 0 0 0-7.998-7.998zM599.972 399.87H376.042a7.994 7.994 0 0 0-7.998 7.998 7.994 7.994 0 0 0 7.998 7.998h223.93c4.422 0 8-3.578 8-7.998a7.994 7.994 0 0 0-8-7.998zM647.958 399.87h-15.992c-4.422 0-8 3.578-8 7.998a7.994 7.994 0 0 0 8 7.998h15.992c4.422 0 8-3.578 8-7.998s-3.58-7.998-8-7.998zM344.052 399.87H168.106a7.994 7.994 0 0 0-7.998 7.998 7.994 7.994 0 0 0 7.998 7.998h175.946a7.994 7.994 0 0 0 7.998-7.998 7.994 7.994 0 0 0-7.998-7.998zM200.096 303.898h-63.98c-4.42 0-7.998 3.578-7.998 7.998s3.576 7.998 7.998 7.998h63.98c4.42 0 7.998-3.578 7.998-7.998s-3.578-7.998-7.998-7.998zM551.988 447.856h-95.972a7.994 7.994 0 0 0-7.998 7.998 7.994 7.994 0 0 0 7.998 7.998h95.972a7.992 7.992 0 0 0 7.996-7.998 7.99 7.99 0 0 0-7.996-7.998zM679.95 495.84h-111.964c-4.422 0-8 3.578-8 7.998a7.994 7.994 0 0 0 8 7.998h111.964a7.992 7.992 0 0 0 7.996-7.998 7.992 7.992 0 0 0-7.996-7.998zM360.046 495.84h-191.94a7.994 7.994 0 0 0-7.998 7.998 7.994 7.994 0 0 0 7.998 7.998h191.942a7.994 7.994 0 0 0 7.998-7.998 7.996 7.996 0 0 0-8-7.998z"  horiz-adv-x="1024" />

    
    <glyph glyph-name="shuaxin" unicode="&#58944;" d="M513.3 794.1c-190.7 0-348.6-138.8-379.2-320.8H0l160.4-192.5 160.4 192.5H199C228.8 619.6 358.4 730 513.3 730c176.9 0 320.8-143.9 320.8-320.8S690.2 88.3 513.3 88.3c-78 0-148.7 29.1-204.4 75.6l-42.1-50.5c66.8-55.7 152.7-89.3 246.4-89.3 212.6 0 385 172.4 385 385s-172.2 385-384.9 385z"  horiz-adv-x="1024" />

    
    <glyph glyph-name="wendaguanli" unicode="&#58946;" d="M858.624 763.392C770.048 846.848 647.168 896 512 896c-134.656 0-258.048-49.152-346.624-132.608-166.912-151.552-190.464-394.752-57.856-571.904 53.248-72.704 128-128 218.624-162.304l155.648-145.408c16.384-14.848 44.032-14.848 60.416 0l155.648 145.408c88.064 34.304 164.864 89.6 218.624 162.304 132.608 177.152 107.008 420.352-57.856 571.904zM540.672 137.216c-7.68-7.68-17.92-11.776-28.672-11.776s-20.992 4.608-28.672 11.776c-7.68 7.68-11.776 17.92-11.776 28.672 0 22.528 17.92 40.448 40.448 40.448 11.264 0 21.504-4.608 28.672-11.776 7.68-7.68 11.776-17.92 11.776-28.672 0-10.752-4.608-20.992-11.776-28.672z m49.152 246.784c-38.4-25.088-56.832-55.808-55.296-92.672v-20.992c0-15.872-12.8-28.672-28.672-28.672-15.872 0-28.672 12.8-28.672 28.672v25.6c-1.536 48.64 18.944 87.552 62.464 117.76 51.712 33.28 75.776 67.584 72.704 102.912-5.12 50.176-34.816 76.8-90.112 79.872-59.392 1.536-97.792-31.744-114.688-100.864-2.56-15.872-16.384-28.16-32.768-28.16-18.432 0-33.28 14.848-33.28 32.768 0 3.072 0.512 5.632 1.024 8.192 21.504 98.304 86.016 150.528 193.024 147.456 90.112-5.12 139.264-52.736 147.456-134.656 2.56-51.2-28.16-97.28-93.184-137.216z"  horiz-adv-x="1024" />

    
    <glyph glyph-name="youxi1" unicode="&#58881;" d="M704.32-78.39999999999998H321.81333333c-77.54666667 0-150.61333333 30.4-205.76 85.54666667S30.50666667 135.36 30.50666667 212.79999999999995v0.42666667c0 77.54666667 30.4 150.61333333 85.54666666 205.76C171.2 474.13333333 244.26666667 504.53333333 321.81333333 504.53333333h382.61333334c77.54666667 0 150.61333333-30.4 205.76-85.54666666 55.14666667-55.14666667 85.54666667-128.21333333 85.54666666-205.76v-0.42666667c0-77.54666667-30.4-150.61333333-85.54666666-205.76s-128.32-85.44-205.86666667-85.44zM321.81333333 429.76c-119.36 0-216.53333333-97.17333333-216.53333333-216.53333333v-0.42666667c0-119.36 97.17333333-216.53333333 216.53333333-216.53333333h382.61333334c119.36 0 216.53333333 97.17333333 216.53333333 216.53333333v0.42666667c0 119.36-97.17333333 216.53333333-216.53333333 216.53333333H321.81333333zM263.89333333 240.32000000000005H412.8v-57.38666667H263.89333333zM311.11466667 139.75893333l0.35093333 148.90666667 57.38666667-0.1344-0.352-148.90666667zM682.77333333 131.30666667000003c-45.65333333 0-82.88 37.12-82.88 82.88s37.12 82.88 82.88 82.88 82.88-37.12 82.88-82.88-37.12-82.88-82.88-82.88z m0 117.65333333c-19.2 0-34.88-15.68-34.88-34.88s15.68-34.88 34.88-34.88 34.88 15.68 34.88 34.88-15.57333333 34.88-34.88 34.88zM545.70666667 432.21333333L488.53333333 463.25333333l100.05333334 184.42666667H385.81333333l-27.84 49.38666667 86.4 143.36 55.78666667-33.49333334-56.74666667-94.18666666h199.89333334l28.58666666-48z"  horiz-adv-x="1024" />

    
    <glyph glyph-name="luntanzixun" unicode="&#58899;" d="M51.2 1.706667a257.706667 30.72 0 1 1 515.413333 0 257.706667 30.72 0 1 1-515.413333 0ZM581.973333-37.546667a143.36 22.186667 0 1 1 286.72 0 143.36 22.186667 0 1 1-286.72 0ZM568.32 482.986667H201.386667c-11.946667 0-22.186667-8.533333-22.186667-18.773334 0-10.24 10.24-18.773333 22.186667-18.773333h366.933333c11.946667 0 22.186667 8.533333 22.186667 18.773333 0 10.24-10.24 18.773333-22.186667 18.773334zM935.253333 416.426667l-360.106666-10.24c-22.186667 0-40.96-18.773333-40.96-40.96v-238.933334c0-22.186667 18.773333-40.96 40.96-40.96h134.826666l3.413334-30.72 34.133333-15.36c6.826667-3.413333 18.773333-1.706667 23.893333 5.12l40.96 40.96h116.053334c22.186667 0 51.2 18.773333 51.2 40.96v238.933334c1.706667 22.186667-22.186667 51.2-44.373334 51.2zM904.533333 416.426667H530.773333c-22.186667 0-40.96-18.773333-40.96-40.96v-235.52c0-22.186667 18.773333-40.96 40.96-40.96H665.6l40.96-40.96c5.12-5.12 15.36-5.12 20.48 0l40.96 40.96h136.533333c22.186667 0 40.96 18.773333 40.96 40.96V375.466667c-1.706667 22.186667-18.773333 40.96-40.96 40.96zM675.84 708.266667l-515.413333-13.653334c-32.426667 0-58.026667-25.6-58.026667-58.026666V298.666667c0-32.426667 25.6-58.026667 58.026667-58.026667h194.56l18.773333-46.08 27.306667-13.653333c15.36-6.826667 35.84-3.413333 47.786666 8.533333l51.2 52.906667h194.56c32.426667 0 58.026667 25.6 58.026667 58.026666V636.586667c0 32.426667-44.373333 71.68-76.8 71.68zM643.413333 708.266667H109.226667C76.8 708.266667 51.2 682.666667 51.2 650.24v-337.92c0-32.426667 25.6-58.026667 58.026667-58.026667h194.56l51.2-52.906666c11.946667-11.946667 30.72-11.946667 42.666666 0l51.2 52.906666h194.56c32.426667 0 58.026667 25.6 58.026667 58.026667V650.24c0 32.426667-25.6 58.026667-58.026667 58.026667zM143.36 532.48c3.413333 20.48 23.893333 37.546667 46.08 37.546667h172.373333c20.48 0 39.253333-17.066667 39.253334-37.546667 0-20.48-17.066667-37.546667-37.546667-37.546667h-187.733333c-22.186667-1.706667-37.546667 15.36-32.426667 37.546667zM143.36 431.786667c3.413333 17.066667 18.773333 30.72 35.84 30.72h305.493333c17.066667 0 32.426667-13.653333 34.133334-30.72v-8.533334c1.706667-20.48-13.653333-37.546667-34.133334-37.546666H174.08c-20.48 0-35.84 17.066667-30.72 37.546666v8.533334zM141.653333 570.026667h180.906667c17.066667 0 30.72-13.653333 30.72-30.72s-13.653333-30.72-30.72-30.72H141.653333c-17.066667 0-30.72 13.653333-30.72 30.72s15.36 30.72 30.72 30.72zM141.653333 462.506667H443.733333c17.066667 0 30.72-13.653333 30.72-30.72S460.8 401.066667 443.733333 401.066667H141.653333c-17.066667 0-30.72 13.653333-30.72 30.72s15.36 30.72 30.72 30.72zM819.2 716.8a76.8 76.8 0 1 1 153.6 0 76.8 76.8 0 1 1-153.6 0ZM785.066667 716.8a76.8 76.8 0 1 1 153.6 0 76.8 76.8 0 1 1-153.6 0Z"  horiz-adv-x="1024" />

    
    <glyph glyph-name="youxi2" unicode="&#58895;" d="M960.2 148.3L901 501c-1.3 7.9-6.9 13.5-13.6 15.7-27.1 57.2-85.1 96.8-152.6 96.8H297.9C204.6 613.6 129 538 129 444.7v-49.5c0-93.3 75.6-168.9 168.9-168.9h415l176.5-122.8c33-23.1 77.5 5.1 70.8 44.8zM734.8 285.8H297.9c-93.3 0-168.9 75.6-168.9 168.9v49.5c0 93.3 75.6 168.9 168.9 168.9h436.9c93.3 0 168.9-75.6 168.9-168.9v-49.5c0-93.2-75.6-168.9-168.9-168.9zM710 556.1m-34.8 0a34.8 34.8 0 1 1 69.6 0 34.8 34.8 0 1 1-69.6 0ZM710 428.5m-34.8 0a34.8 34.8 0 1 1 69.6 0 34.8 34.8 0 1 1-69.6 0ZM650.4 492.3m-34.8 0a34.8 34.8 0 1 1 69.6 0 34.8 34.8 0 1 1-69.6 0ZM769.6 492.3m-34.8 0a34.8 34.8 0 1 1 69.6 0 34.8 34.8 0 1 1-69.6 0ZM554.2 673.2H308.8c-104 0-188.3-84.1-188.7-188L65.6 160.8c-7.5-44.4 42.2-75.8 79.1-50.1l251.7 175.2h14.1c94.3 63.3 156.4 170.9 156.4 293 0.1 32.6-4.4 64.3-12.7 94.3zM415.5 518.5h-49v49c0 12.9-10.5 23.4-23.4 23.4h-5.5c-12.9 0-23.4-10.5-23.4-23.4v-49h-49c-12.9 0-23.4-10.5-23.4-23.4v-5.5c0-12.9 10.5-23.4 23.4-23.4h49v-49c0-12.9 10.5-23.4 23.4-23.4h5.5c12.9 0 23.4 10.5 23.4 23.4v49h49c12.9 0 23.4 10.5 23.4 23.4v5.5c0.1 12.9-10.4 23.4-23.4 23.4z"  horiz-adv-x="1024" />

    
    <glyph glyph-name="shipin1" unicode="&#58990;" d="M900.654545 800.581818H123.345455C65.163636 800.581818 16.290909 754.036364 16.290909 693.527273V197.818182c0-58.181818 46.545455-107.054545 107.054546-107.054546h777.30909c58.181818 0 107.054545 46.545455 107.054546 107.054546V693.527273c0 58.181818-48.872727 107.054545-107.054546 107.054545M900.654545 816.872727H123.345455C55.854545 816.872727 0 761.018182 0 693.527273V197.818182c0-67.490909 55.854545-123.345455 123.345455-123.345455h777.30909c67.490909 0 123.345455 55.854545 123.345455 123.345455V693.527273c0 67.490909-55.854545 123.345455-123.345455 123.345454zM989.090909 197.818182c0-48.872727-39.563636-88.436364-88.436364-88.436364H123.345455c-48.872727 0-88.436364 39.563636-88.436364 88.436364V693.527273c0 48.872727 39.563636 88.436364 88.436364 88.436363h777.30909c48.872727 0 88.436364-39.563636 88.436364-88.436363V197.818182zM616.727273 472.436364l-165.236364 104.727272c-30.254545 18.618182-53.527273 6.981818-53.527273-27.927272v-221.090909c0-34.909091 23.272727-46.545455 53.527273-27.927273l165.236364 104.727273c27.927273 18.618182 27.927273 48.872727 0 67.490909zM828.509091 23.272727H53.527273c-18.618182 0-34.909091-16.290909-34.909091-34.909091 0-20.945455 16.290909-34.909091 34.909091-34.909091h777.309091c18.618182 0 34.909091 16.290909 34.909091 34.909091s-16.290909 34.909091-37.236364 34.909091zM970.472727-13.963636m-34.909091 0a34.909091 34.909091 0 1 1 69.818182 0 34.909091 34.909091 0 1 1-69.818182 0ZM83.781818 688.872727h-4.654545c-6.981818 0-11.636364-4.654545-11.636364-11.636363v-309.527273c0-6.981818 4.654545-11.636364 11.636364-11.636364h4.654545c6.981818 0 11.636364 4.654545 11.636364 11.636364V674.909091c0 6.981818-4.654545 13.963636-11.636364 13.963636zM81.454545 323.490909m-13.963636 0a13.963636 13.963636 0 1 1 27.927273 0 13.963636 13.963636 0 1 1-27.927273 0Z"  horiz-adv-x="1024" />

    
    <glyph glyph-name="techreport-" unicode="&#58926;" d="M113.42 103.68v-71.44h797.16v71.44S707.4 149 512 100c0 0-191.48 51.76-398.58 3.68zM915.58 27.24H108.42v80.41l3.87 0.9c107.63 25 210.88 22.66 278.55 16.3 66.75-6.27 113-17.6 121.19-19.68 101.17 25.14 204.18 24.78 272.88 20 74.73-5.17 126.24-16.52 126.76-16.64l3.91-0.87z m-797.16 10h787.16v62.37c-13.28 2.69-59.23 11.32-121.58 15.62-68.22 4.71-170.58 5-270.81-20.08l-1.26-0.32-1.26 0.34c-0.48 0.13-48.48 12.94-121 19.74-66.06 6.19-166.41 8.5-271.25-15.22zM518.21 85.53l-13 4.17c-0.47 0.15-48.52 15.3-120.28 22.78-66 6.88-166.14 8.51-268.54-22.82l-12.93-4V660l6.68 2.35c2.45 0.86 61 21.26 140 31.68 46.53 6.13 90.43 7.46 130.47 3.95 50.47-4.43 95-16.61 132.27-36.21l5.35-2.81z m-212.77 51.12a787.1 787.1 0 0 0 82.08-4.34c52.14-5.47 91.46-14.68 110.7-19.83v534.3c-33.85 16.76-74 27.28-119.37 31.26-38.59 3.39-81 2.09-126.1-3.85a779.56 779.56 0 0 1-129.32-28.51v-533.1a654.13 654.13 0 0 0 136.17 22.66q22.67 1.41 45.84 1.41zM508.61 85.51V658.92l5.32 2.82c37 19.6 81.25 31.79 131.37 36.22 39.76 3.51 83.36 2.19 129.57-3.95 78.48-10.42 136.61-30.82 139.05-31.69l6.66-2.36v-574.28l-12.94 4C806 121 706.57 119.36 641.07 112.48c-71.23-7.48-118.93-22.62-119.4-22.78z m20 561.29v-534.29c19.14 5.15 58.14 14.34 109.82 19.8 64.72 6.84 161.64 8.7 262.15-19.71V645.69a770.66 770.66 0 0 1-128.75 28.55c-44.7 5.91-86.75 7.18-125 3.78-44.95-4.02-84.69-14.5-118.22-31.22zM393.86 514.67H200.67a12.5 12.5 0 0 0 0 25h193.19a12.5 12.5 0 0 0 0-25zM393.86 382H200.67a12.5 12.5 0 0 0 0 25h193.19a12.5 12.5 0 1 0 0-25zM393.86 249.43H200.67a12.5 12.5 0 0 0 0 25h193.19a12.5 12.5 0 0 0 0-25zM811.19 514.67H618a12.5 12.5 0 0 0 0 25h193.19a12.5 12.5 0 1 0 0-25zM811.19 382H618a12.5 12.5 0 0 0 0 25h193.19a12.5 12.5 0 1 0 0-25zM811.19 249.43H618a12.5 12.5 0 0 0 0 25h193.19a12.5 12.5 0 0 0 0-25zM913.08 28.95H110.92v99.33h5v-94.33h792.16v94.33h5v-99.33zM945 522.76v-528.31c0-5.29-4.85-9.58-10.84-9.58H89.82c-6 0-10.84 4.29-10.84 9.58V522.76c0 5.29 4.85 9.58 10.84 9.58h12.78c6 0 10.84-4.29 10.84-9.58V41c0-5.29 4.85-9.58 10.84-9.58h775.47c6 0 10.84 4.29 10.84 9.58V522.76c0 5.29 4.85 9.58 10.84 9.58h12.74c5.99-0.01 10.83-4.34 10.83-9.58zM934.18-27.63H89.82c-12.87 0-23.34 9.9-23.34 22.08V522.76c0 12.17 10.47 22.08 23.34 22.08h12.78c12.87 0 23.34-9.9 23.34-22.08v-478.83H898.1V522.76c0 12.17 10.47 22.08 23.34 22.08h12.74c12.87 0 23.34-9.9 23.34-22.08v-528.31c0-12.17-10.52-22.08-23.34-22.08z m-842.7 25h841V519.83h-9.38V41c0-12.17-10.47-22.08-23.34-22.08H124.29c-12.87 0-23.34 9.9-23.34 22.08V519.83h-9.47zM495.42 104.82h37.33v-20h-37.33z"  horiz-adv-x="1024" />

    
    <glyph glyph-name="xtubiao-" unicode="&#58891;" d="M820.792042 540.807599l-0.660432-513.566025-540.50365-145.325086 0.660432 513.556018 540.50365 145.335093zM279.62796-118.083512l-32.491259 9.396148 0.660432 513.556018L280.288392 395.472506l-0.660432-513.556018zM280.288392 395.472506l-32.491259 9.396148 540.493643 145.335093 32.501266-9.396148L280.288392 395.472506zM742.69094 871.033665l24.105773-119.758358-475.921394-292.601448-24.105773 119.758357L742.69094 871.033665zM290.875319 458.673859l-32.491259 9.396148-24.105772 119.758357 32.491258-9.396148 24.105773-119.758357zM266.769546 578.432216l-32.491258 9.396148L710.199681 880.429812l32.491259-9.396147-475.921394-292.601449zM514.921912 80.37634L482.420646 89.772488l128.844303 153.490428 32.501265-9.396148-128.844302-153.490428zM511.979987 71.630618l-32.501266 9.396148-0.170111 0.060039 32.501266-9.396148 0.170111-0.060039M511.809876 71.690657l-32.501266 9.396148a2.161414 2.161414 0 0 0-1.120733 2.001309l32.501265-9.396148a2.161414 2.161414 0 0 1 1.120734-2.001309M510.689142 73.721986l-32.501265 9.396148v0.130085l32.501265-9.396148v-0.130085M643.766214 233.866768l-32.501265 9.396148-128.313956 84.62537 32.501266-9.396148 128.313955-84.62537zM514.921912 80.37634L482.420646 89.772488l0.530347 238.115798 32.501266-9.396148-0.530347-238.115798zM515.452259 318.492138l128.313955-84.62537-128.844302-153.490428 0.530347 238.115798zM512.380249 325.536748l-32.501266 9.396148a3.001964 3.001964 0 0 0 0.370243 0.280183l32.501265-9.396148a3.001964 3.001964 0 0 1-0.370242-0.280183M512.750491 325.816931l-32.501265 9.396148a2.221453 2.221453 0 0 0 0.55036 0.270177l32.501265-9.396148a2.221453 2.221453 0 0 1-0.55036-0.270177M513.300851 326.077101l-32.501265 9.396148h0.320209l32.501266-9.396148h-0.32021M513.611054 326.147147l-32.501265 9.396148h0.250163l32.501266-9.396148h-0.250164M513.861218 326.157154l-32.501266 9.396147h0.220144l32.501266-9.396147h-0.220144M514.091368 326.127134l-32.501265 9.396148h0.080052l32.501266-9.396148h-0.080053M510.689142 73.852071l-32.501265 9.396148 0.560366 248.852824 32.491259-9.396148-0.55036-248.852824zM511.239502 322.704895l-32.501265 9.396148v0.280183l32.501265-9.396148v-0.280183M511.249509 322.995085l-32.501266 9.396148v0.350229l32.501266-9.396148v-0.350229M511.299542 323.345314l-32.501266 9.396148q0 0.160105 0.070046 0.320209l32.491259-9.436174q0-0.160105-0.070046-0.320209M511.359581 323.625497l-32.501266 9.396148q0 0.160105 0.090059 0.310203l32.491259-9.346115q-0.050033-0.160105-0.090059-0.310203M511.439633 323.985733l-32.501265 9.396148q0.050033 0.160105 0.120078 0.320209l32.501266-9.396148q-0.070046-0.160105-0.120079-0.320209M511.569718 324.295936l-32.501265 9.396148q0.070046 0.170111 0.160105 0.330216l32.501265-9.396148q-0.090059-0.160105-0.160105-0.330216M511.729823 324.626152l-32.501265 9.396148a4.062658 4.062658 0 0 0 0.220144 0.380249l32.501265-9.396148a4.062658 4.062658 0 0 1-0.220144-0.380249M511.959974 325.006401L479.418682 334.402549a3.562331 3.562331 0 0 0 0.420275 0.52034l32.501266-9.396148a3.562331 3.562331 0 0 1-0.420275-0.52034M648.629396 237.489138a2.431591 2.431591 0 0 0 0.900589-2.081361 4.002619 4.002619 0 0 0-0.910595-2.511644L514.001309 72.461161a2.52165 2.52165 0 0 0-1.200785-0.800524 1.480969 1.480969 0 0 0-1.000655 0.06004 2.221453 2.221453 0 0 0-1.120733 2.17142l0.560366 248.852824a4.162724 4.162724 0 0 0 1.140747 2.821846 2.461611 2.461611 0 0 0 1.000655 0.570374 1.430936 1.430936 0 0 0 1.200785-0.180118z m-133.707484-157.102791L643.766214 233.866768 515.442252 318.492138l-0.530347-238.155824"  horiz-adv-x="1024" />

    
    <glyph glyph-name="yuedu2" unicode="&#58892;" d="M107 688.3h812v-656.1H107zM910 679.3v-638.1H116V679.3h794m18 18H98v-674.1h830V697.3zM513 34.8c-1.7 0-3 1.3-3 3V682.6c0 1.7 1.3 3 3 3s3-1.3 3-3v-644.8c0-1.6-1.3-3-3-3zM512.2 49.7c-67 62.1-216.8 42-388.6 0V696.4c177.9 50.5 331.1 75.2 388.6 0v-646.7zM512.7 48.5l-0.8 0.8c-31.2 28.9-81.7 41.6-154.6 38.9-59.5-2.2-133.6-14.6-233.5-39l-0.6-0.2V696.8l0.4 0.1c103.8 29.4 179.9 44.4 239.6 47.2 73.7 3.4 122.6-12.1 149.5-47.3l0.1-0.1v-648.2zM124.2 696v-645.7c99.6 24.3 173.7 36.7 233.1 38.9 72.5 2.7 123.1-9.9 154.5-38.4V696.2c-26.7 34.8-75.3 50.1-148.6 46.8-59.6-2.7-135.5-17.6-239-47zM512.2 49.7c67 62.1 216.8 42 388.6 0V696.4c-177.9 50.5-331.1 75.2-388.6 0v-646.7zM512.2 46.7c-0.4 0-0.8 0.1-1.2 0.3-1.1 0.5-1.8 1.6-1.8 2.8V696.4c0 0.7 0.2 1.3 0.6 1.8 27.4 35.9 77 51.7 151.6 48.3 59.9-2.7 136.2-17.7 240.1-47.2 1.3-0.4 2.2-1.5 2.2-2.9v-646.7c0-0.9-0.4-1.8-1.1-2.4s-1.7-0.8-2.6-0.6c-99.7 24.4-173.7 36.8-233 39-72.2 2.7-122.2-9.8-152.8-38.3-0.5-0.5-1.2-0.7-2-0.7z m136.3 45.4c6.1 0 12.4-0.1 18.8-0.4 59-2.2 132.3-14.4 230.5-38.2V694.1c-102.4 29-177.6 43.7-236.6 46.4-71.9 3.3-119.7-11.5-146-45.2v-639.1c29.2 24.1 73 35.9 133.3 35.9zM272.9 313.6c-7.7 0-13.5 1.9-17.3 5.5-4.4 4.2-6.6 11.2-6.6 20.6V489.9c0 9.6 2.2 16.8 6.7 21.5 4.4 4.7 11.5 7.4 20.9 8.1l65.5 4.8c5 0.4 9.8 0.6 14.1 0.6 4.1 0 8-0.2 11.5-0.5 7.4-0.7 14.2-2.6 20.1-5.8 5-2.6 9.6-6.1 13.5-10.4 3.9-4.3 6.9-9.2 9-14.6 2-5.4 3.1-11.3 3.1-17.4 0-18.9-8.6-34.1-25.7-45.1 23.4-7.7 35.2-23.4 35.2-46.8 0-11.7-3.1-22.6-9.1-32.4-6.1-9.8-14.3-17.4-24.6-22.6-6.4-3.1-13.8-5.5-22-7.2-8.1-1.6-17.6-2.9-28.4-3.7l-61.7-4.5c-1.6-0.2-2.9-0.3-4.2-0.3z m22.9 38l40.7 3c26 1.9 38.7 11.6 38.7 29.6 0 9-3 15.1-9.2 18.5-5.2 2.9-12.7 4.4-22.3 4.4-2.5 0-5.3-0.1-8.1-0.3l-39.8-2.9v-52.3z m0 87.3l34.3 2.5c9.8 0.7 17.5 2.2 22.7 4.4 4.9 2.1 8.6 5.5 11.2 10.5l0.1 0.1c2.1 3.5 3 7.3 3 11.6 0 8.8-2.9 14.2-9 16.5-4.9 1.9-11.8 2.8-20.5 2.8-3.5 0-7.3-0.2-11.4-0.5l-30.4-2.2v-45.7zM356.1 521.8c4 0 7.8-0.2 11.2-0.5 7.1-0.7 13.4-2.5 19-5.4 4.8-2.5 9-5.7 12.7-9.8 3.7-4 6.5-8.6 8.4-13.7 1.9-5.1 2.9-10.5 2.9-16.3 0-20-10.1-35.3-30.3-46.1 26.6-6.4 39.8-21.7 39.8-45.8 0-11.2-2.9-21.4-8.7-30.8s-13.6-16.6-23.4-21.5c-6.2-3-13.2-5.3-21.2-6.9-8-1.6-17.3-2.8-28-3.6l-61.7-4.5c-1.3-0.1-2.6-0.1-3.9-0.1-6.9 0-12 1.6-15.2 4.7-3.8 3.7-5.7 9.8-5.7 18.4v150c0 8.8 2 15.3 5.9 19.4 3.9 4.1 10.2 6.5 19 7.2l65.5 4.8c4.7 0.3 9.4 0.5 13.7 0.5m-63.3-86.1l37.5 2.7c10.2 0.7 18.1 2.3 23.6 4.6 5.6 2.3 9.8 6.3 12.7 11.8 2.3 4 3.5 8.3 3.5 13.1 0 10.1-3.6 16.5-10.9 19.3-5.2 2-12.4 3-21.6 3-3.6 0-7.5-0.2-11.6-0.5l-33.2-2.4v-51.6m0-87.4l44 3.2c27.7 2 41.5 12.9 41.5 32.6 0 10.1-3.6 17.1-10.8 21.1-5.7 3.2-13.6 4.8-23.8 4.8-2.6 0-5.4-0.1-8.3-0.3l-42.6-3.1v-58.3m63.3 179.5c-4.4 0-9.2-0.2-14.3-0.6l-65.5-4.8c-10.2-0.7-17.9-3.8-22.9-9-5-5.3-7.5-13.2-7.5-23.6v-150.1c0-10.3 2.5-17.9 7.6-22.8 4.4-4.2 10.9-6.4 19.4-6.4 1.4 0 2.8 0.1 4.3 0.2l61.7 4.5c10.9 0.8 20.5 2 28.7 3.7 8.4 1.7 16.1 4.2 22.6 7.4 10.8 5.5 19.5 13.5 25.8 23.7 6.4 10.3 9.6 21.7 9.6 34 0 13.5-3.8 24.8-11.4 33.5-5.1 5.9-11.9 10.6-20.4 14.1 14.8 11.3 22.3 26.1 22.3 44.3 0 6.5-1.1 12.7-3.3 18.5-2.2 5.8-5.4 11-9.6 15.6-4.2 4.6-9 8.3-14.4 11.1-6.2 3.3-13.4 5.3-21.2 6.1-3.4 0.5-7.3 0.6-11.5 0.6z m-57.3-46.1l27.7 2c4 0.3 7.8 0.4 11.2 0.4 8.4 0 14.9-0.9 19.4-2.6 3.3-1.3 7-4 7-13.7 0-3.7-0.9-7-2.6-10.1l-0.1-0.1-0.1-0.1c-2.3-4.3-5.5-7.3-9.7-9.1-4.9-2.1-12.3-3.4-21.8-4.1l-31-2.3v39.7z m0-80.6l37 2.7c2.8 0.2 5.4 0.3 7.9 0.3 9.1 0 16.1-1.4 20.8-4 3.3-1.8 7.7-5.5 7.7-15.9 0-10.3-3.7-24.3-35.9-26.6l-37.5-2.7v46.2zM865.4 251.9c-19.5 0-75 3.4-139.5 37.9-40.6 21.7-86 17.6-117 10.3-33.8-7.9-58.3-21.3-58.5-21.4l-2.9 5.3c1 0.6 25.3 13.8 59.9 21.9 32.1 7.6 79.1 11.8 121.4-10.8 78.4-41.9 142.9-37.1 143.6-37l0.5-6c-0.2 0-2.8-0.2-7.5-0.2zM865.4 168.4c-19.5 0-75 3.4-139.5 37.9-40.6 21.7-86 17.6-117 10.3-33.8-7.9-58.3-21.3-58.5-21.4l-2.9 5.3c1 0.6 25.3 13.8 59.9 21.9 32.1 7.6 79.1 11.8 121.4-10.8 78.4-41.9 142.9-37.1 143.6-37l0.5-6c-0.2 0-2.8-0.2-7.5-0.2zM865.4 335.5c-19.5 0-75 3.4-139.5 37.9-40.6 21.7-86 17.6-117 10.3-33.8-7.9-58.3-21.3-58.5-21.4l-2.9 5.3c1 0.6 25.3 13.8 59.9 21.9 32.1 7.6 79.1 11.8 121.4-10.8 78.4-41.9 142.9-37.1 143.6-37l0.5-6c-0.2 0-2.8-0.2-7.5-0.2zM865.4 419c-19.5 0-75 3.4-139.5 37.9-40.6 21.7-86.2 17.5-117.2 10.2-33.8-8-58.1-21.2-58.4-21.4l-2.9 5.3c1 0.6 25.3 13.8 59.9 21.9 32.1 7.6 79.1 11.8 121.4-10.8 78.5-42 142.9-37.1 143.6-37l0.5-6c-0.1 0.1-2.7-0.1-7.4-0.1zM729 571.7c-4.6 0.7-58 9.2-81.9 9.2-23.9 0-77.2-8.5-81.9-9.2-10.4 0.1-18.9 8.6-18.9 19.1v69.7c0 10.5 8.6 19.1 19.1 19.1h0.5c0.6 0.1 59.6 9.2 81.2 9.2s80.6-9.1 81.2-9.2h0.5c10.5 0 19.1-8.6 19.1-19.1v-69.7c-0.1-10.5-8.5-19-18.9-19.1zM647.1 685.8c21.3 0 80.1-9.1 80.7-9.2 0.3 0 0.6-0.1 0.9-0.1 8.9 0 16.1-7.2 16.1-16.1v-69.7c0-8.7-7-15.9-15.7-16.1-6.1 1-58.3 9.2-82.1 9.2s-76-8.2-82.1-9.2c-8.7 0.2-15.7 7.4-15.7 16.1v69.7c0 8.9 7.2 16.1 16.1 16.1 0.3 0 0.6 0 0.9 0.1 0.8 0.2 59.6 9.2 80.9 9.2m0 6c-22.1 0-81.7-9.2-81.7-9.2-12.2 0-22.1-9.9-22.1-22.1v-69.7c0-12.2 9.9-22.1 22.1-22.1 0 0 57.1 9.2 81.7 9.2s81.7-9.2 81.7-9.2c12.2 0 22.1 9.9 22.1 22.1v69.7c0 12.2-9.9 22.1-22.1 22.1 0 0-59.6 9.2-81.7 9.2zM779.9 614s59.4-16.5 87.1-16.5M867 594.5c-27.8 0-85.4 15.9-87.9 16.6-1.6 0.4-2.5 2.1-2.1 3.7 0.4 1.6 2.1 2.5 3.7 2.1 0.6-0.2 59.3-16.4 86.3-16.4 1.7 0 3-1.3 3-3s-1.4-3-3-3zM766.5 535.2s57.1-15.2 90.9-15.2M857.4 517c-33.8 0-89.3 14.7-91.7 15.3-1.6 0.4-2.6 2.1-2.1 3.7s2.1 2.6 3.7 2.1c0.6-0.2 57.1-15.1 90.1-15.1 1.7 0 3-1.3 3-3s-1.4-3-3-3z"  horiz-adv-x="1024" />

    
    <glyph glyph-name="bianchengdaiquan" unicode="&#58897;" d="M512 792c55.1 0 108.5-10.8 158.8-32 48.6-20.5 92.2-50 129.7-87.5s66.9-81.1 87.5-129.7c21.3-50.3 32-103.7 32-158.8s-10.8-108.5-32-158.8c-20.5-48.6-50-92.2-87.5-129.7s-81.1-66.9-129.7-87.5c-50.3-21.3-103.7-32-158.8-32s-108.5 10.8-158.8 32c-48.6 20.5-92.2 50-129.7 87.5s-66.9 81.1-87.5 129.7c-21.3 50.3-32 103.7-32 158.8s10.8 108.5 32 158.8c20.5 48.6 50 92.2 87.5 129.7s81.1 66.9 129.7 87.5c50.3 21.2 103.7 32 158.8 32m0 40C264.6 832 64 631.4 64 384s200.6-448 448-448 448 200.6 448 448S759.4 832 512 832zM313.7 353c-16.2 0-29.2 12.3-29.2 27.2V637.6c0 14.9 13 27.2 29.2 27.2h396.7c16.2 0 29.2-12.3 29.2-27.2v-257.3c0-14.9-13-27.2-29.2-27.2H313.7zM720.1 380.3c0-5.2-4.5-9.1-9.7-9.1H313.7c-5.2 0-9.7 3.9-9.7 9.1V637.6c0 5.2 4.5 9.1 9.7 9.1h396.7c5.2 0 9.7-3.9 9.7-9.1v-257.3zM386.3 587.7l28.5 14.9v-3.9l-24-12.3 24-11.7v-4.5l-28.5 14.9v2.6zM423.2 613.6h5.2v-18.8c0.6 1.3 1.9 2.6 3.9 3.9 1.3 0.6 3.2 1.3 5.2 1.3 3.9 0 10.4-2.6 10.4-13v-17.5h-5.2V587c0 4.5-1.9 9.1-7.1 9.1-3.2 0-6.5-2.6-7.1-5.2 0-0.6-0.6-1.3-0.6-2.6v-18.1h-5.2v43.4h0.5zM463.4 607.8v-8.4h7.8v-3.9h-7.8v-16.2c0-3.9 1.3-5.8 3.9-5.8 1.3 0 2.6 0 3.2 0.6v-3.9c-1.3-0.6-2.6-0.6-4.5-0.6-2.6 0-4.5 0.6-5.8 1.9s-1.9 4.5-1.9 7.8v16.2h-4.5v3.9h4.5v7.1l5.1 1.3zM477 591.6v7.8h4.5v-4.5c1.9 2.6 4.5 5.2 9.1 5.2 3.9 0 7.1-2.6 8.4-5.8 0.6 1.9 1.9 3.2 3.2 3.9 1.9 1.3 3.9 1.9 6.5 1.9 3.9 0 9.7-2.6 9.7-13v-17.5h-5.2v16.9c0 5.8-1.9 9.1-6.5 9.1-3.2 0-5.2-2.6-6.5-5.2 0-0.6-0.6-1.9-0.6-2.6v-18.1h-5.2V587c0 4.5-1.9 8.4-6.5 8.4-3.2 0-5.8-2.6-6.5-5.2 0-0.6-0.6-1.9-0.6-2.6v-18.1h-5.2v22h1.4zM528.2 613.6h5.2v-43.4h-5.2v43.4zM571 584.4l-28.5-14.3V574l24 11.7-24 12.3v3.9l28.5-14.3v-3.2zM578.1 572.8c0 2.6 1.3 3.9 3.9 3.9 1.9 0 3.9-1.3 3.9-3.9 0-1.9-1.3-3.9-3.9-3.9-2.6 0.6-3.9 1.9-3.9 3.9zM590.4 572.8c0 2.6 1.3 3.9 3.9 3.9 1.9 0 3.9-1.3 3.9-3.9 0-1.9-1.3-3.9-3.9-3.9-1.9 0.6-3.9 1.9-3.9 3.9zM603.4 572.8c0 2.6 1.3 3.9 3.9 3.9 1.9 0 3.9-1.3 3.9-3.9 0-1.9-1.3-3.9-3.9-3.9-2.6 0.6-3.9 1.9-3.9 3.9zM615.7 572.8c0 2.6 1.3 3.9 3.9 3.9 1.9 0 3.9-1.3 3.9-3.9 0-1.9-1.3-3.9-3.9-3.9-2 0.6-3.9 1.9-3.9 3.9zM628.7 572.8c0 2.6 1.3 3.9 3.9 3.9 1.9 0 3.9-1.3 3.9-3.9 0-1.9-1.3-3.9-3.9-3.9-2.6 0.6-3.9 1.9-3.9 3.9zM641 572.8c0 2.6 1.3 3.9 3.9 3.9 1.9 0 3.9-1.3 3.9-3.9 0-1.9-1.3-3.9-3.9-3.9-2 0.6-3.9 1.9-3.9 3.9zM653.9 572.8c0 2.6 1.3 3.9 3.9 3.9 1.9 0 3.9-1.3 3.9-3.9 0-1.9-1.3-3.9-3.9-3.9-2.6 0.6-3.9 1.9-3.9 3.9zM666.9 572.8c0 2.6 1.3 3.9 3.9 3.9 1.9 0 3.9-1.3 3.9-3.9 0-1.9-1.3-3.9-3.9-3.9-2.6 0.6-3.9 1.9-3.9 3.9zM811.4 186.8c-5.2-5.2-13-7.8-22-7.8H232c-8.4 0-14.6 1.6-19.1 5.5l-0.7-1.3v-38.6c4.5-3.9 11.4-6.4 20.5-6.4h557.4c9.7 0 16.9 2.6 22 7.8v40.8h-0.7zM789.4 178c9.7 0 17.5 3.2 22.7 8.4l-49.9 127c-8.4 21.4-34.4 39.5-57.7 39.5H335.7c-23.3 0-50.6-16.9-60.3-38.2l-62.9-130.9c4.5-3.9 11.7-5.8 19.4-5.8h557.5zM593.7 192.9H421.9l14.3 33.7h142.6zM759.6 248H279.3l33.7 79.1h421.3z"  horiz-adv-x="1024" />

    
    <glyph glyph-name="ziyuan" unicode="&#58906;" d="M31.507692 864.492308l771.938462 0 0-535.63077-771.938462 0 0 535.63077ZM992.492308-128a173.292308 173.292308 0 0 0-173.292308 173.292308V234.338462H346.584615v-189.046154a173.292308 173.292308 0 0 0-346.584615 0V675.446154A220.553846 220.553846 0 0 0 220.553846 896h724.676923a220.553846 220.553846 0 0 0 220.553846-220.553846v-630.153846a173.292308 173.292308 0 0 0-173.292307-173.292308zM315.076923 297.353846h535.630769a31.507692 31.507692 0 0 0 31.507693-31.507692v-220.553846a110.276923 110.276923 0 0 1 220.553846 0V675.446154A157.538462 157.538462 0 0 1 945.230769 832.984615H220.553846A157.538462 157.538462 0 0 1 63.015385 675.446154v-630.153846a110.276923 110.276923 0 0 1 220.553846 0V265.846154a31.507692 31.507692 0 0 0 31.507692 31.507692zM315.076923 391.876923a157.538462 157.538462 0 1 0 157.538462 157.538462 157.538462 157.538462 0 0 0-157.538462-157.538462z m0 252.061539a94.523077 94.523077 0 1 1 94.523077-94.523077 94.523077 94.523077 0 0 1-94.523077 94.523077zM960.984615 517.907692H708.923077a31.507692 31.507692 0 0 0 0 63.015385h252.061538a31.507692 31.507692 0 0 0 0-63.015385zM834.953846 391.876923a31.507692 31.507692 0 0 0-31.507692 31.507692V675.446154a31.507692 31.507692 0 0 0 63.015384 0v-252.061539a31.507692 31.507692 0 0 0-31.507692-31.507692z"  horiz-adv-x="1165" />

    
    <glyph glyph-name="icon_luntan-mian" unicode="&#58963;" d="M806.749091 686.545455H78.987636C34.978909 686.545455 0 654.801455 0 610.792727v-476.439272c0-22.132364 6.586182-39.866182 22.085818-55.738182 15.476364-15.825455 36.026182-20.433455 58.181818-20.433455h99.770182l153.483637-154.112L486.981818 58.181818h319.744c21.829818 0 41.216 5.026909 56.413091 20.712727 15.197091 15.662545 21.224727 33.024 21.224727 54.830546V610.792727C884.363636 654.801455 850.734545 686.545455 806.749091 686.545455zM231.819636 321.745455a50.501818 50.501818 0 1 0-0.046545 101.003636 50.501818 50.501818 0 0 0 0.046545-101.003636z m211.037091 0a50.501818 50.501818 0 1 0-0.046545 101.003636 50.501818 50.501818 0 0 0 0.046545-101.003636z m211.037091 0a50.501818 50.501818 0 1 0-0.046545 101.003636 50.501818 50.501818 0 0 0 0.046545-101.003636zM941.032727 849.454545H213.271273C168.750545 849.454545 139.636364 804.933818 139.636364 760.436364V733.090909h713.658181C897.28 733.090909 930.909091 701.346909 930.909091 657.338182V197.818182h10.752C985.925818 197.818182 1024 239.755636 1024 283.997091V760.436364C1024 804.933818 985.530182 849.454545 941.032727 849.454545z"  horiz-adv-x="1024" />

    
    <glyph glyph-name="xuanzhongduihao" unicode="&#59148;" d="M512-64C265.6-64 64 137.6 64 384S265.6 832 512 832s448-201.6 448-448-201.6-448-448-448z m0 832c-211.2 0-384-172.8-384-384s172.8-384 384-384 384 172.8 384 384-172.8 384-384 384z m-16-528c-8 0-16 3.2-22.4 9.6l-160 160c-12.8 12.8-12.8 32 0 44.8 12.8 12.8 32 12.8 44.8 0L496 316.8l217.6 217.6c12.8 12.8 32 12.8 44.8 0 12.8-12.8 12.8-32 0-44.8l-240-240C512 243.2 504 240 496 240z"  horiz-adv-x="1024" />

    
    <glyph glyph-name="duihao3" unicode="&#59149;" d="M480 160c-8 0-16 3.2-22.4 9.6l-288 288c-12.8 12.8-12.8 32 0 44.8 12.8 12.8 32 12.8 44.8 0L480 236.8l425.6 425.6c12.8 12.8 32 12.8 44.8 0 12.8-12.8 12.8-32 0-44.8l-448-448C496 163.2 488 160 480 160z"  horiz-adv-x="1024" />

    
    <glyph glyph-name="duihao4" unicode="&#61146;" d="M461.28 82.86a30 30 0 0 0-18.89 6.69L145 330.52a30 30 0 1 0 37.78 46.61l273.35-221.5 382.5 502.29a30 30 0 1 0 47.73-36.35L485.15 94.68a30 30 0 0 0-20.29-11.61 30.83 30.83 0 0 0-3.58-0.21z"  horiz-adv-x="1024" />

    
    <glyph glyph-name="luntan4" unicode="&#58945;" d="M916.2 787.7H467.1c-24.7 0-44.9-20.2-44.9-44.9V653H152.7c-49.4 0-89.8-40.4-89.8-89.8v-359.3c0-49.4 40.4-89.8 89.8-89.8h47.2c13.5 0 20.2-9 18-22.5L206.7 31c-9-49.4 18-67.4 60.6-40.4l163.9 98.8c22.5 13.5 58.4 22.5 83.1 22.5H694c49.4 0 89.8 40.4 89.8 89.8V354.3l15.7-11.2c38.2-26.9 71.9-9 71.9 40.4V361c0 11.2 9 22.5 22.5 22.5h22.5c24.7 0 44.9 20.2 44.9 44.9V742.8c-0.2 24.7-20.4 44.9-45.1 44.9zM736.6 203.9c0-24.7-20.2-44.9-44.9-44.9H500.8c-24.7 0-62.9-11.2-83.1-24.7l-146-92.1c-11.2-6.7-18-2.2-13.5 9l13.5 62.9c4.5 24.7-11.2 44.9-35.9 44.9h-83.1c-24.7 0-44.9 20.2-44.9 44.9V563.2c0 24.7 20.2 44.9 44.9 44.9h539c24.7 0 44.9-20.2 44.9-44.9v-359.3z m179.6 247c0-13.5-9-22.5-22.5-22.5h-22.5c-24.7 0-44.9-20.2-44.9-44.9V397c0-13.5-9-18-18-11.2l-26.9 18V563.2c0 49.4-40.4 89.8-89.8 89.8H467v67.4c0 11.2 11.2 22.5 22.5 22.5h404.2c11.2 0 22.5-11.2 22.5-22.5v-269.5zM489.5 338.6H220.1c-13.5 0-22.5-9-22.5-22.5s11.2-22.5 22.5-22.5h269.5c13.5 0 22.5 9 22.5 22.5-0.1 13.5-11.3 22.5-22.6 22.5zM624.3 473.3H220.1c-11.2 0-22.5-9-22.5-22.5s9-22.5 22.5-22.5h404.2c11.2 0 22.5 9 22.5 22.5s-9 22.5-22.5 22.5z"  horiz-adv-x="1024" />

    
    <glyph glyph-name="zhikeshuma-" unicode="&#58883;" d="M508.8 533.6c-4.9 0-9.1 3.6-9.9 8.5-0.6 3.9-13.7 96.6 33.3 151 21.6 25.1 52.3 37.8 91.1 37.8 5.5 0 10-4.5 10-10s-4.5-10-10-10c-32.7 0-58.3-10.4-75.9-30.8-41-47.4-28.8-134.2-28.7-135 0.8-5.5-3-10.5-8.4-11.3-0.5-0.1-1-0.2-1.5-0.2zM837 37.1c-11.9 0-23.8 2.2-35.1 6.6-22 8.5-40.1 24.7-51.1 45.6l-45 85.8c-13.4 25.6-39.7 41.4-68.5 41.4H386.8c-28.9 0-55.1-15.9-68.5-41.4l-45-85.8c-11-20.9-29.1-37.1-51.1-45.6s-46.3-8.8-68.5-0.7c-24.5 8.9-44 26.8-55 50.4-11 23.6-12.2 50-3.3 74.5l113.7 312.3c12.8 35.2 45.1 60.2 82.4 63.7 5.5 0.5 11 0.2 16.6-0.8l114-21.4c5.7-1.1 11.4-1.6 17.2-1.6h145.5c5.8 0 11.5 0.5 17.2 1.6l114 21.4c5.5 1 11.1 1.3 16.6 0.8 37.2-3.5 69.6-28.5 82.4-63.7l113.7-312.3c8.9-24.5 7.7-50.9-3.3-74.5s-30.5-41.5-55-50.4c-10.8-4-22.1-5.9-33.4-5.9zM386.8 236.4h250.4c36.3 0 69.4-20 86.2-52.1l45-85.8c17.9-34.1 58.8-49.9 95-36.8 19.4 7.1 34.9 21.3 43.7 40 8.7 18.7 9.7 39.8 2.6 59.2L796.1 473.3c-10.2 28-35.9 47.8-65.5 50.6-3.6 0.3-7.3 0.2-11-0.5l-114-21.4c-6.9-1.3-13.9-1.9-20.9-1.9H439.2c-7 0-14 0.7-20.9 1.9l-114 21.4c-3.7 0.7-7.4 0.9-11 0.5-29.6-2.8-55.3-22.6-65.5-50.6L114.2 161c-7.1-19.4-6.2-40.5 2.6-59.2 8.7-18.7 24.3-33 43.7-40 36.2-13.2 77.1 2.6 95 36.8l45 85.8c16.9 32 50 52 86.3 52zM693.4 414.8c-18.3 0-33.2 14.9-33.2 33.2s14.9 33.2 33.2 33.2 33.2-14.9 33.2-33.2-14.9-33.2-33.2-33.2z m0 46.5c-7.3 0-13.2-5.9-13.2-13.2 0-7.3 5.9-13.2 13.2-13.2s13.2 5.9 13.2 13.2c0 7.2-5.9 13.2-13.2 13.2zM756.4 351.8c-18.3 0-33.2 14.9-33.2 33.2s14.9 33.2 33.2 33.2 33.2-14.9 33.2-33.2-14.8-33.2-33.2-33.2z m0 46.4c-7.3 0-13.2-5.9-13.2-13.2 0-7.3 5.9-13.2 13.2-13.2s13.2 5.9 13.2 13.2c0.1 7.3-5.9 13.2-13.2 13.2zM630.4 351.8c-18.3 0-33.2 14.9-33.2 33.2s14.9 33.2 33.2 33.2 33.2-14.9 33.2-33.2-14.9-33.2-33.2-33.2z m0 46.4c-7.3 0-13.2-5.9-13.2-13.2 0-7.3 5.9-13.2 13.2-13.2s13.2 5.9 13.2 13.2c0 7.3-5.9 13.2-13.2 13.2zM693.4 288.7c-18.3 0-33.2 14.9-33.2 33.2s14.9 33.2 33.2 33.2 33.2-14.9 33.2-33.2-14.9-33.2-33.2-33.2z m0 46.5c-7.3 0-13.2-5.9-13.2-13.2 0-7.3 5.9-13.2 13.2-13.2s13.2 5.9 13.2 13.2c0 7.3-5.9 13.2-13.2 13.2zM583.6 499.9c-5.5 0-10 4.5-10 10v21.2H448V510c0-5.5-4.5-10-10-10s-10 4.5-10 10v21.2c0 11 9 20 20 20h125.6c11 0 20-9 20-20V510c0-5.6-4.5-10.1-10-10.1zM386 287.7h-60.8c-10.4 0-18.9 8.5-18.9 18.9v27.7h-27.7c-10.4 0-18.9 8.5-18.9 18.9V414c0 10.4 8.5 18.9 18.9 18.9h27.7v27.7c0 10.4 8.5 18.9 18.9 18.9H386c10.4 0 18.9-8.5 18.9-18.9v-27.7h27.7c10.4 0 18.9-8.5 18.9-18.9v-60.8c0-10.4-8.5-18.9-18.9-18.9h-27.7v-27.7c0-10.4-8.5-18.9-18.9-18.9z m-59.7 20h58.5v27.7c0 10.4 8.5 18.9 18.9 18.9h27.7v58.5h-27.7c-10.4 0-18.9 8.5-18.9 18.9v27.7h-58.5v-27.7c0-10.4-8.5-18.9-18.9-18.9h-27.7v-58.5h27.7c10.4 0 18.9-8.5 18.9-18.9v-27.7z m106.3 105.1zM508.8 533.6c-4.9 0-9.1 3.6-9.9 8.5-0.6 3.9-13.7 96.6 33.3 151 21.6 25.1 52.3 37.8 91.1 37.8 5.5 0 10-4.5 10-10s-4.5-10-10-10c-32.7 0-58.3-10.4-75.9-30.8-41-47.4-28.8-134.2-28.7-135 0.8-5.5-3-10.5-8.4-11.3-0.5-0.1-1-0.2-1.5-0.2zM837 37.1c-11.9 0-23.8 2.2-35.1 6.6-22 8.5-40.1 24.7-51.1 45.6l-45 85.8c-13.4 25.6-39.7 41.4-68.5 41.4H386.8c-28.9 0-55.1-15.9-68.5-41.4l-45-85.8c-11-20.9-29.1-37.1-51.1-45.6s-46.3-8.8-68.5-0.7c-24.5 8.9-44 26.8-55 50.4-11 23.6-12.2 50-3.3 74.5l113.7 312.3c12.8 35.2 45.1 60.2 82.4 63.7 5.5 0.5 11 0.2 16.6-0.8l114-21.4c5.7-1.1 11.4-1.6 17.2-1.6h145.5c5.8 0 11.5 0.5 17.2 1.6l114 21.4c5.5 1 11.1 1.3 16.6 0.8 37.2-3.5 69.6-28.5 82.4-63.7l113.7-312.3c8.9-24.5 7.7-50.9-3.3-74.5s-30.5-41.5-55-50.4c-10.8-4-22.1-5.9-33.4-5.9zM386.8 236.4h250.4c36.3 0 69.4-20 86.2-52.1l45-85.8c17.9-34.1 58.8-49.9 95-36.8 19.4 7.1 34.9 21.3 43.7 40 8.7 18.7 9.7 39.8 2.6 59.2L796.1 473.3c-10.2 28-35.9 47.8-65.5 50.6-3.6 0.3-7.3 0.2-11-0.5l-114-21.4c-6.9-1.3-13.9-1.9-20.9-1.9H439.2c-7 0-14 0.7-20.9 1.9l-114 21.4c-3.7 0.7-7.4 0.9-11 0.5-29.6-2.8-55.3-22.6-65.5-50.6L114.2 161c-7.1-19.4-6.2-40.5 2.6-59.2 8.7-18.7 24.3-33 43.7-40 36.2-13.2 77.1 2.6 95 36.8l45 85.8c16.9 32 50 52 86.3 52zM693.4 414.8c-18.3 0-33.2 14.9-33.2 33.2s14.9 33.2 33.2 33.2 33.2-14.9 33.2-33.2-14.9-33.2-33.2-33.2z m0 46.5c-7.3 0-13.2-5.9-13.2-13.2 0-7.3 5.9-13.2 13.2-13.2s13.2 5.9 13.2 13.2c0 7.2-5.9 13.2-13.2 13.2zM756.4 351.8c-18.3 0-33.2 14.9-33.2 33.2s14.9 33.2 33.2 33.2 33.2-14.9 33.2-33.2-14.8-33.2-33.2-33.2z m0 46.4c-7.3 0-13.2-5.9-13.2-13.2 0-7.3 5.9-13.2 13.2-13.2s13.2 5.9 13.2 13.2c0.1 7.3-5.9 13.2-13.2 13.2zM630.4 351.8c-18.3 0-33.2 14.9-33.2 33.2s14.9 33.2 33.2 33.2 33.2-14.9 33.2-33.2-14.9-33.2-33.2-33.2z m0 46.4c-7.3 0-13.2-5.9-13.2-13.2 0-7.3 5.9-13.2 13.2-13.2s13.2 5.9 13.2 13.2c0 7.3-5.9 13.2-13.2 13.2zM693.4 288.7c-18.3 0-33.2 14.9-33.2 33.2s14.9 33.2 33.2 33.2 33.2-14.9 33.2-33.2-14.9-33.2-33.2-33.2z m0 46.5c-7.3 0-13.2-5.9-13.2-13.2 0-7.3 5.9-13.2 13.2-13.2s13.2 5.9 13.2 13.2c0 7.3-5.9 13.2-13.2 13.2zM583.6 499.9c-5.5 0-10 4.5-10 10v21.2H448V510c0-5.5-4.5-10-10-10s-10 4.5-10 10v21.2c0 11 9 20 20 20h125.6c11 0 20-9 20-20V510c0-5.6-4.5-10.1-10-10.1zM386 287.7h-60.8c-10.4 0-18.9 8.5-18.9 18.9v27.7h-27.7c-10.4 0-18.9 8.5-18.9 18.9V414c0 10.4 8.5 18.9 18.9 18.9h27.7v27.7c0 10.4 8.5 18.9 18.9 18.9H386c10.4 0 18.9-8.5 18.9-18.9v-27.7h27.7c10.4 0 18.9-8.5 18.9-18.9v-60.8c0-10.4-8.5-18.9-18.9-18.9h-27.7v-27.7c0-10.4-8.5-18.9-18.9-18.9z m-59.7 20h58.5v27.7c0 10.4 8.5 18.9 18.9 18.9h27.7v58.5h-27.7c-10.4 0-18.9 8.5-18.9 18.9v27.7h-58.5v-27.7c0-10.4-8.5-18.9-18.9-18.9h-27.7v-58.5h27.7c10.4 0 18.9-8.5 18.9-18.9v-27.7z m106.3 105.1z"  horiz-adv-x="1024" />

    
    <glyph glyph-name="shipin2" unicode="&#59073;" d="M1183.423648 365.120341V-13.837598H807.322176v-30.680571H624.190911V-13.837598H247.877848V591.94497h576.477334v-80.192663a35.229758 35.229758 0 0 1 35.229758-35.229758h56.177182l59.66842-68.02623 59.774214 68.02623h148.113097z m-277.712057-84.636056a190.431125 190.431125 0 1 1-190.431126-190.431125 190.431125 190.431125 0 0 1 190.431126 190.53692zM1413.63372-13.837598a280.991705 280.991705 0 0 0 0-57.552518 229.681096 229.681096 0 0 0-24.438661-40.413717H42.318028a235.18244 235.18244 0 0 0-24.544456 40.413717c-3.808623 13.859154 0 57.552518 0 57.552518H624.190911v-30.680571h183.131265V-13.837598h606.311544zM715.597851 470.70382a190.431125 190.431125 0 1 0-190.431126-190.431125 190.431125 190.431125 0 0 0 190.431126 190.431125zM643.445613 176.593527l187.680454 108.439946L643.445613 393.47342zM824.355182 677.744771v-85.799801H247.877848V-13.837598h-85.799801V628.761654A48.983117 48.983117 0 0 0 211.590139 677.744771zM988.12595 734.874109a45.49188 45.49188 0 1 0-45.49188-45.49188 45.49188 45.49188 0 0 0 45.49188 45.49188zM1132.007244 734.874109a45.49188 45.49188 0 1 0-45.491879-45.49188 45.597675 45.597675 0 0 0 45.491879 45.49188zM1275.888539 734.874109a45.49188 45.49188 0 1 0-45.597675-45.49188 45.597675 45.597675 0 0 0 45.597675 45.49188zM1269.117655 414.103458v-428.258442h-85.694007V476.522549h85.694007v-62.419091zM263.747108-13.837598h-31.73852V591.94497a15.86926 15.86926 0 0 0 15.86926 15.86926h576.477334v-31.73852h-560.713869zM177.947307-13.837598h-31.738521V628.761654A64.958173 64.958173 0 0 0 211.590139 693.614032h613.611404v-31.738521H211.590139a33.113857 33.113857 0 0 1-33.113857-33.113857zM1253.248394 476.522549h31.738521v-490.677533h-31.738521zM1167.554388 476.522549h31.738521v-490.677533h-31.738521zM1389.195059-127.990478H42.318028a15.86926 15.86926 0 0 0-12.801204 6.559294 217.408868 217.408868 0 0 0-27.189332 45.28029 256.341454 256.341454 0 0 0-0.528976 63.477041 15.86926 15.86926 0 0 0 15.763466 14.493925H624.190911a15.86926 15.86926 0 0 0 15.86926-15.869261v-14.599719h151.392745V-13.837598a15.86926 15.86926 0 0 0 15.86926 15.86926h606.311544a15.86926 15.86926 0 0 0 15.763465-14.493924 258.245765 258.245765 0 0 0 0-63.477042 211.590139 211.590139 0 0 0-26.871948-45.597675 15.86926 15.86926 0 0 0-13.330178-6.453499z m-1338.942401 31.73852h1330.79618a171.811193 171.811193 0 0 1 17.350392 28.776259 182.17911 182.17911 0 0 1 0 37.451455H823.191436v-14.493925a15.86926 15.86926 0 0 0-15.86926-15.86926H624.190911a15.86926 15.86926 0 0 0-15.869261 15.86926v14.493925H32.373291a181.861725 181.861725 0 0 1 0-37.451455 175.725611 175.725611 0 0 1 17.879367-28.776259zM715.597851 74.712875a205.877205 205.877205 0 1 0 205.983 205.877205 206.088796 206.088796 0 0 0-205.983-205.877205z m0 380.121685a174.138685 174.138685 0 1 1 174.244479-174.24448A174.350275 174.350275 0 0 1 715.597851 454.83456zM643.445613 160.830062a15.86926 15.86926 0 0 0-15.86926 15.86926V393.47342a15.86926 15.86926 0 0 0 23.80389 13.753359l187.680454-108.439947a15.86926 15.86926 0 0 0 0-27.506718L651.380243 162.945963a15.86926 15.86926 0 0 0-7.93463-2.115901z m15.869261 205.136639v-161.760661l140.072672 80.827433zM975.430542 392.627059a15.86926 15.86926 0 0 0-11.954843 5.395548l-54.907641 62.630682h-48.983118a51.204814 51.204814 0 0 0-51.099018 51.099018V844.900981A51.204814 51.204814 0 0 0 859.58494 896h544.844609a51.204814 51.204814 0 0 0 51.099018-51.099019v-333.148674a51.204814 51.204814 0 0 0-51.099018-51.099018H1042.398821l-55.013437-62.630682a15.86926 15.86926 0 0 0-11.954842-5.395548zM859.58494 864.261479a19.360498 19.360498 0 0 1-19.360497-19.360498v-333.148674a19.360498 19.360498 0 0 1 19.360497-19.360497h56.177182a15.86926 15.86926 0 0 0 11.954843-5.395549l47.713577-54.484461 47.819371 54.484461a15.86926 15.86926 0 0 0 11.954843 5.395549h369.224793a19.360498 19.360498 0 0 1 19.360497 19.360497V844.900981A19.360498 19.360498 0 0 1 1404.429549 864.261479zM988.12595 627.915294a61.36114 61.36114 0 1 0 61.36114 61.466935 61.466935 61.466935 0 0 0-61.36114-61.466935z m0 91.089555a29.622619 29.622619 0 1 1 29.622619-29.62262 29.622619 29.622619 0 0 1-29.622619 29.62262zM1132.007244 627.915294a61.36114 61.36114 0 1 0 61.361141 61.466935 61.466935 61.466935 0 0 0-61.361141-61.466935z m0 91.089555a29.622619 29.622619 0 1 1 29.62262-29.62262 29.622619 29.622619 0 0 1-29.62262 29.62262zM1275.888539 627.915294a61.36114 61.36114 0 1 0 61.36114 61.466935 61.57273 61.57273 0 0 0-61.36114-61.466935z m0 91.089555a29.622619 29.622619 0 1 1 29.62262-29.62262 29.728415 29.728415 0 0 1-29.62262 29.62262z"  horiz-adv-x="1455" />

    
    <glyph glyph-name="yuedu3" unicode="&#58898;" d="M512-32c-17.7 0-32 14.3-32 32V704c0 17.7 14.3 32 32 32s32-14.3 32-32v-704c0-17.7-14.3-32-32-32zM893.2-32H130.8C76.3-32 32 12.3 32 66.8V701.2C32 755.7 76.3 800 130.8 800h247.5c54.8 0 103.5-26.8 133.7-67.9C542.2 773.2 590.9 800 645.7 800h247.5c54.5 0 98.8-44.3 98.8-98.8v-634.3c0-54.6-44.3-98.9-98.8-98.9zM130.8 736c-19.2 0-34.8-15.6-34.8-34.8v-634.3c0-19.2 15.6-34.8 34.8-34.8h762.3c19.2 0 34.8 15.6 34.8 34.8V701.2c0 19.2-15.6 34.8-34.8 34.8H645.7C589.6 736 544 690.4 544 634.3c0-17.7-14.3-32-32-32s-32 14.3-32 32c0 56.1-45.6 101.7-101.7 101.7H130.8z"  horiz-adv-x="1024" />

    
    <glyph glyph-name="yingwen" unicode="&#59094;" d="M716.8 819.2a230.4 230.4 0 0 0 230.4-230.4v-409.6a230.4 230.4 0 0 0-230.4-230.4H307.2a230.4 230.4 0 0 0-230.4 230.4V588.8a230.4 230.4 0 0 0 230.4 230.4h409.6m0 76.8H307.2A307.2 307.2 0 0 1 0 588.8v-409.6a307.2 307.2 0 0 1 307.2-307.2h409.6a307.2 307.2 0 0 1 307.2 307.2V588.8A307.2 307.2 0 0 1 716.8 896zM176.128 603.392h316.416v-61.44H248.064v-121.6h230.4V358.4h-230.4v-132.864h256v-61.44H176.128zM847.872 360.704v-196.096h-70.144v189.952c0 51.2-24.064 76.8-71.936 76.8a64 64 0 0 1-45.312-18.432 86.272 86.272 0 0 1-25.6-58.368v-191.232h-70.4V482.304h70.144v-36.864a128 128 0 0 0 41.728 33.792 116.736 116.736 0 0 0 51.2 11.776c80.384 0 120.32-43.52 120.32-130.304z"  horiz-adv-x="1024" />

    
    <glyph glyph-name="shi_pin" unicode="&#58900;" d="M1113.327634-128H97.054734A97.172705 97.172705 0 0 0 0-30.933469V798.933469A97.172705 97.172705 0 0 0 97.054734 895.988203h1016.2729A97.172705 97.172705 0 0 0 1210.382369 798.921671v-829.85514a97.172705 97.172705 0 0 0-97.054735-97.066531z m-1016.2729 953.205608A26.307531 26.307531 0 0 1 70.782595 798.921671v-829.85514a26.295734 26.295734 0 0 1 26.272139-26.283936h1016.2729A26.295734 26.295734 0 0 1 1139.599774-30.945266V798.933469a26.307531 26.307531 0 0 1-26.27214 26.272139zM476.850543 200.053732a36.453036 36.453036 0 0 0-18.214721 4.860405 36.913123 36.913123 0 0 0-18.297301 31.958341V531.127522a36.571007 36.571007 0 0 0 55.127845 31.852167L750.295504 415.846269a36.571007 36.571007 0 0 0 0-63.704335L495.478163 205.008514a37.337819 37.337819 0 0 0-18.62762-4.954782z m34.270573 272.135482v-176.366631l152.748839 88.171518z"  horiz-adv-x="1210" />

    
    <glyph glyph-name="Shoppingbag" unicode="&#58956;" d="M426.666667 810.666667h170.666666v-85.333334H426.666667zM768-59.733333H256a16.981333 16.981333 0 0 0-11.485867 4.4544l-0.017066 0.017066-0.546134 0.529067-170.666666 170.666667A16.930133 16.930133 0 0 0 68.266667 128V469.333333c0 66.030933 36.369067 102.4 102.4 102.4h153.6v153.6c0 4.522667 1.792 8.874667 5.000533 12.066134l85.333333 85.333333A17.220267 17.220267 0 0 0 426.615467 827.733333h170.769066a16.861867 16.861867 0 0 0 12.014934-5.000533l85.333333-85.333333A17.015467 17.015467 0 0 0 699.733333 725.333333v-153.6h153.6c66.030933 0 102.4-36.369067 102.4-102.4v-341.333333c0-4.539733-1.792-8.874667-5.000533-12.066133l-170.666667-170.666667-0.546133-0.529067-0.017067-0.017066h-0.017066A16.981333 16.981333 0 0 0 768-59.733333z m-494.933333 34.133333h477.866666V366.933333H273.066667v-392.533333z m512 392.533333v-368.401066l136.533333 136.533333V366.933333h-136.533333zM102.4 135.0656l136.533333-136.533333V366.933333H102.4v-231.867733zM785.066667 401.066667h136.533333v68.266666c0 47.223467-21.0432 68.266667-68.266667 68.266667h-68.266666v-136.533333z m-512 0h477.866666v136.533333H273.066667v-136.533333zM102.4 401.066667h136.533333v136.533333h-68.266666c-47.223467 0-68.266667-21.0432-68.266667-68.266667v-68.266666z m512 170.666666h51.2v146.5344l-51.2 51.2V571.733333z m-170.666667 0h136.533334v136.533334h-136.533334v-136.533334z m-85.333333 0h51.2V769.467733l-51.2-51.2V571.733333z m85.333333 170.666667h136.533334V793.6h-136.533334v-51.2z"  horiz-adv-x="1024" />

    
    <glyph glyph-name="Shoppingbasket" unicode="&#59051;" d="M938.666667 435.2H85.333333a34.133333 34.133333 0 0 0 0 68.266667h146.0736l77.550934 232.6528a34.133333 34.133333 0 0 0 64.768-21.589334L303.36 503.466667h417.297067l-70.365867 211.080533a34.133333 34.133333 0 1 0 64.768 21.589333L792.593067 503.466667H938.666667a34.133333 34.133333 0 0 0 0-68.266667zM768 25.6H256a17.066667 17.066667 0 0 0-16.725333 13.7216l-85.333334 426.666667a17.066667 17.066667 0 0 0 33.467734 6.7072L218.794667 315.733333H324.266667v153.6a17.066667 17.066667 0 0 0 34.133333 0v-153.6h136.533333v153.6a17.066667 17.066667 0 0 0 34.133334 0v-153.6h136.533333v153.6a17.066667 17.066667 0 1 0 34.133333 0v-153.6h105.489067l31.3856 156.945067a17.066667 17.066667 0 1 0 33.467733-6.7072l-85.333333-426.666667A17.083733 17.083733 0 0 0 768 25.6z m-68.266667 34.133333h54.289067l27.306667 136.533334H699.733333v-136.533334z m-170.666666 0h136.533333v136.533334h-136.533333v-136.533334z m-170.666667 0h136.533333v136.533334h-136.533333v-136.533334z m-88.405333 0H324.266667v136.533334h-81.578667l27.306667-136.533334zM699.733333 230.4h88.4224l10.24 51.2H699.733333v-51.2z m-170.666666 0h136.533333v51.2h-136.533333v-51.2z m-170.666667 0h136.533333v51.2h-136.533333v-51.2z m-122.538667 0H324.266667v51.2h-98.645334l10.24-51.2z"  horiz-adv-x="1024" />

    


  </font>
</defs>
</svg>
