<?xml version="1.0" encoding="utf-8"?>
<!-- Generator: Adobe Illustrator 22.1.0, SVG Export Plug-In . SVG Version: 6.00 Build 0)  -->
<svg height="32px" width="32px"
	 viewBox="0 0 32 32">
<path class="st0" d="M23.9,11.9c0,0.2,0,0.3,0,0.5c0,5.3-4.1,11.4-11.4,11.4c-2.2,0-4.4-0.7-6.2-1.8c0.3,0.1,0.7,0.1,1,0.1
	c1.9,0,3.7-0.7,5-1.7c-1.7,0-3.3-1.2-3.8-2.8c0.2,0.1,0.5,0.1,0.7,0.1c0.4,0,0.7,0,1.1-0.1c-1.9-0.4-3.3-2-3.3-3.9v-0.1
	c0.5,0.3,1.1,0.5,1.8,0.5c-1.1-0.7-1.8-2-1.8-3.3c0-0.7,0.2-1.4,0.6-2c2,2.4,4.9,4,8.4,4.1c0-0.3-0.1-0.6-0.1-0.9c0-2.2,1.8-4,4-4
	C21,8,22,8.5,22.8,9.3c0.9-0.2,1.7-0.5,2.5-1c-0.3,0.9-1,1.7-1.8,2.2c0.8,0,1.5-0.2,2.3-0.6C25.2,10.8,24.6,11.4,23.9,11.9z"/>
</svg>
