<svg viewBox="0 0 24 24">
        <path d="M6.35771799,15.5289702 L11.4367849,18.1092048 C11.6928133,18.2392707 11.8388062,18.5168235 11.8009253,18.8014859 C11.7635474,19.0823675 11.5435992,19.3039339 11.2629991,19.3433697 L4.76762157,20.2562354 C4.22071162,20.3330986 3.71504358,19.9520504 3.6381804,19.4051405 C3.61196974,19.2186419 3.63895697,19.0285326 3.71603549,18.8566966 L4.99238499,16.0112506 C5.21841899,15.5073389 5.81015695,15.2820744 6.31406873,15.5081084 C6.32878459,15.5147093 6.3433386,15.5216653 6.35771799,15.5289702 Z"  transform="translate(7.717655, 17.843183) rotate(8.000000) translate(-7.717655, -17.843183) "></path>
                <path d="M14.391764,17.4401532 L16.2204467,16.0756516 L16.3866663,16.0757926 C16.9529212,16.0762731 17.4764311,15.7585487 17.7326856,15.2427018 L20.5272308,9.61721073 C20.532032,9.6074871 20.532032,9.6074871 20.5367392,9.59771763 C20.8945358,8.85054088 20.5788808,7.954783 19.8317041,7.59698641 L11.8763376,3.78744202 C11.1367887,3.43329814 10.2499145,3.73863292 9.88511474,4.47298408 L7.09056952,10.0984751 C7.08576834,10.1081987 7.08576834,10.1081987 7.08106111,10.1179682 C6.82443127,10.6538812 6.90956225,11.2829159 7.28468031,11.7305245 L7.39248366,11.8591606 L7.50666158,14.1496019 C7.51579763,14.3328737 7.62459,14.4964159 7.79009214,14.575669 L13.8767988,17.4903781 C14.0444453,17.5706581 14.2427887,17.5513136 14.391764,17.4401532 Z" transform="translate(13.808900, 10.589658) rotate(8.000000) translate(-13.808900, -10.589658) "></path>
</svg>